%TF.GenerationSoftware,KiCad,Pcbnew,6.0.0-rc1-unknown-db41769bb9~144~ubuntu20.04.1*%
%TF.CreationDate,2021-12-01T14:16:25+01:00*%
%TF.ProjectId,khada,6b686164-612e-46b6-9963-61645f706362,rev?*%
%TF.SameCoordinates,Original*%
%TF.FileFunction,Soldermask,Bot*%
%TF.FilePolarity,Negative*%
%FSLAX46Y46*%
G04 Gerber Fmt 4.6, Leading zero omitted, Abs format (unit mm)*
G04 Created by KiCad (PCBNEW 6.0.0-rc1-unknown-db41769bb9~144~ubuntu20.04.1) date 2021-12-01 14:16:25*
%MOMM*%
%LPD*%
G01*
G04 APERTURE LIST*
G04 Aperture macros list*
%AMRoundRect*
0 Rectangle with rounded corners*
0 $1 Rounding radius*
0 $2 $3 $4 $5 $6 $7 $8 $9 X,Y pos of 4 corners*
0 Add a 4 corners polygon primitive as box body*
4,1,4,$2,$3,$4,$5,$6,$7,$8,$9,$2,$3,0*
0 Add four circle primitives for the rounded corners*
1,1,$1+$1,$2,$3*
1,1,$1+$1,$4,$5*
1,1,$1+$1,$6,$7*
1,1,$1+$1,$8,$9*
0 Add four rect primitives between the rounded corners*
20,1,$1+$1,$2,$3,$4,$5,0*
20,1,$1+$1,$4,$5,$6,$7,0*
20,1,$1+$1,$6,$7,$8,$9,0*
20,1,$1+$1,$8,$9,$2,$3,0*%
%AMHorizOval*
0 Thick line with rounded ends*
0 $1 width*
0 $2 $3 position (X,Y) of the first rounded end (center of the circle)*
0 $4 $5 position (X,Y) of the second rounded end (center of the circle)*
0 Add line between two ends*
20,1,$1,$2,$3,$4,$5,0*
0 Add two circle primitives to create the rounded ends*
1,1,$1,$2,$3*
1,1,$1,$4,$5*%
G04 Aperture macros list end*
%ADD10C,1.750000*%
%ADD11C,3.987800*%
%ADD12C,2.300000*%
%ADD13RoundRect,0.160000X0.693344X-0.581785X0.581785X0.693344X-0.693344X0.581785X-0.581785X-0.693344X0*%
%ADD14HorizOval,1.600000X0.000000X0.000000X0.000000X0.000000X0*%
%ADD15C,4.000000*%
%ADD16RoundRect,0.160000X0.905097X0.000000X0.000000X0.905097X-0.905097X0.000000X0.000000X-0.905097X0*%
%ADD17HorizOval,1.600000X0.000000X0.000000X0.000000X0.000000X0*%
%ADD18RoundRect,0.160000X0.353649X-0.833146X0.833146X0.353649X-0.353649X0.833146X-0.833146X-0.353649X0*%
%ADD19HorizOval,1.600000X0.000000X0.000000X0.000000X0.000000X0*%
%ADD20RoundRect,0.160000X0.672618X-0.605628X0.605628X0.672618X-0.672618X0.605628X-0.605628X-0.672618X0*%
%ADD21HorizOval,1.600000X0.000000X0.000000X0.000000X0.000000X0*%
%ADD22RoundRect,0.160000X0.640000X-0.640000X0.640000X0.640000X-0.640000X0.640000X-0.640000X-0.640000X0*%
%ADD23O,1.600000X1.600000*%
%ADD24C,1.400000*%
%ADD25O,1.400000X1.400000*%
%ADD26RoundRect,0.160000X0.605628X-0.672618X0.672618X0.605628X-0.605628X0.672618X-0.672618X-0.605628X0*%
%ADD27HorizOval,1.600000X0.000000X0.000000X0.000000X0.000000X0*%
%ADD28R,1.700000X1.700000*%
%ADD29C,1.700000*%
%ADD30RoundRect,0.160000X0.000000X-0.905097X0.905097X0.000000X0.000000X0.905097X-0.905097X0.000000X0*%
%ADD31HorizOval,1.600000X0.000000X0.000000X0.000000X0.000000X0*%
%ADD32C,1.200000*%
%ADD33O,2.500000X1.700000*%
%ADD34R,2.000000X2.000000*%
%ADD35C,2.000000*%
%ADD36R,2.000000X3.200000*%
G04 APERTURE END LIST*
D10*
%TO.C,SW6*%
X92208069Y-108142249D03*
D11*
X87147400Y-108585000D03*
D10*
X82086731Y-109027751D03*
D12*
X83130523Y-106386729D03*
X84174314Y-103745707D03*
X89234983Y-103302955D03*
X90721526Y-105722602D03*
%TD*%
D11*
%TO.C,SW8*%
X104299000Y-62373000D03*
D10*
X99225962Y-62638867D03*
X109372038Y-62107133D03*
D12*
X100361288Y-60035881D03*
X101496614Y-57432895D03*
X107970845Y-59637081D03*
X106569652Y-57167029D03*
%TD*%
D13*
%TO.C,D12*%
X90756063Y-125664702D03*
D14*
X90091937Y-118073698D03*
%TD*%
D13*
%TO.C,D4*%
X70944063Y-127391902D03*
D14*
X70279937Y-119800898D03*
%TD*%
D13*
%TO.C,D14*%
X97334663Y-131506702D03*
D14*
X96670537Y-123915698D03*
%TD*%
D13*
%TO.C,D6*%
X77548063Y-133233902D03*
D14*
X76883937Y-125642898D03*
%TD*%
D15*
%TO.C,H3*%
X78105000Y-114554000D03*
%TD*%
D11*
%TO.C,SW1*%
X64830000Y-72263000D03*
D10*
X59769331Y-72705751D03*
X69890669Y-71820249D03*
D12*
X60813123Y-70064729D03*
X61856914Y-67423707D03*
X66917583Y-66980955D03*
X68404126Y-69400602D03*
%TD*%
D15*
%TO.C,H5*%
X180467000Y-141478000D03*
%TD*%
%TO.C,H2*%
X156464000Y-56388000D03*
%TD*%
D16*
%TO.C,D23*%
X198020077Y-128627277D03*
D17*
X192631923Y-123239123D03*
%TD*%
D13*
%TO.C,D8*%
X80342063Y-126579102D03*
D14*
X79677937Y-118988098D03*
%TD*%
D18*
%TO.C,D15*%
X181833749Y-137136570D03*
D19*
X184688251Y-130071430D03*
%TD*%
D10*
%TO.C,SW14*%
X121158000Y-98552000D03*
X131318000Y-98552000D03*
D11*
X126238000Y-98552000D03*
D12*
X123698000Y-93472000D03*
X122428000Y-96012000D03*
X130048000Y-96012000D03*
X128778000Y-93472000D03*
%TD*%
D20*
%TO.C,D20*%
X110126800Y-120873379D03*
D21*
X109728000Y-113263821D03*
%TD*%
D13*
%TO.C,D13*%
X94058063Y-128458702D03*
D14*
X93393937Y-120867698D03*
%TD*%
D10*
%TO.C,SW15*%
X167154835Y-131846009D03*
X176507165Y-135815837D03*
D11*
X171831000Y-133830923D03*
D12*
X171477832Y-128162301D03*
X169316334Y-130004155D03*
X176153996Y-130147215D03*
X176330581Y-132981526D03*
%TD*%
D20*
%TO.C,D22*%
X116719400Y-126714779D03*
D21*
X116320600Y-119105221D03*
%TD*%
D11*
%TO.C,SW9*%
X105299000Y-81415000D03*
D10*
X100225962Y-81680867D03*
X110372038Y-81149133D03*
D12*
X102496614Y-76474895D03*
X101361288Y-79077881D03*
X107569652Y-76209029D03*
X108970845Y-78679081D03*
%TD*%
D22*
%TO.C,D7*%
X138557000Y-127254000D03*
D23*
X138557000Y-119634000D03*
%TD*%
D11*
%TO.C,SW18*%
X146050000Y-101727000D03*
D10*
X140970774Y-101638342D03*
X151129226Y-101815658D03*
D12*
X142284909Y-99120893D03*
X143599045Y-96603445D03*
X148678271Y-96692103D03*
X149903749Y-99253881D03*
%TD*%
D10*
%TO.C,SW5*%
X80426731Y-90035751D03*
D11*
X85487400Y-89593000D03*
D10*
X90548069Y-89150249D03*
D12*
X82514314Y-84753707D03*
X81470523Y-87394729D03*
X87574983Y-84310955D03*
X89061526Y-86730602D03*
%TD*%
D10*
%TO.C,SW11*%
X154806038Y-129043867D03*
X144659962Y-128512133D03*
D11*
X149733000Y-128778000D03*
D12*
X146061155Y-126042081D03*
X147462348Y-123572029D03*
X153670712Y-126440881D03*
X152535386Y-123837895D03*
%TD*%
D11*
%TO.C,SW22*%
X165105000Y-102870000D03*
D10*
X170184226Y-102958658D03*
X160025774Y-102781342D03*
D12*
X161339909Y-100263893D03*
X162654045Y-97746445D03*
X168958749Y-100396881D03*
X167733271Y-97835103D03*
%TD*%
D13*
%TO.C,D2*%
X64340063Y-131049502D03*
D14*
X63675937Y-123458498D03*
%TD*%
D10*
%TO.C,SW12*%
X121158000Y-60452000D03*
X131318000Y-60452000D03*
D11*
X126238000Y-60452000D03*
D12*
X122428000Y-57912000D03*
X123698000Y-55372000D03*
X130048000Y-57912000D03*
X128778000Y-55372000D03*
%TD*%
D24*
%TO.C,R1*%
X195834000Y-105537000D03*
D25*
X200914000Y-105537000D03*
%TD*%
D10*
%TO.C,SW13*%
X121158000Y-79502000D03*
X131318000Y-79502000D03*
D11*
X126238000Y-79502000D03*
D12*
X123698000Y-74422000D03*
X122428000Y-76962000D03*
X128778000Y-74422000D03*
X130048000Y-76962000D03*
%TD*%
D11*
%TO.C,SW20*%
X165765000Y-64756000D03*
D10*
X170844226Y-64844658D03*
X160685774Y-64667342D03*
D12*
X163314045Y-59632445D03*
X161999909Y-62149893D03*
X168393271Y-59721103D03*
X169618749Y-62282881D03*
%TD*%
D13*
%TO.C,D9*%
X83644063Y-129373102D03*
D14*
X82979937Y-121782098D03*
%TD*%
D10*
%TO.C,SW10*%
X101226674Y-100722867D03*
D11*
X106299712Y-100457000D03*
D10*
X111372750Y-100191133D03*
D12*
X102362000Y-98119881D03*
X103497326Y-95516895D03*
X109971557Y-97721081D03*
X108570364Y-95251029D03*
%TD*%
D26*
%TO.C,D11*%
X160455600Y-128491702D03*
D27*
X160854400Y-120882144D03*
%TD*%
D13*
%TO.C,D5*%
X74246063Y-130185902D03*
D14*
X73581937Y-122594898D03*
%TD*%
D13*
%TO.C,D1*%
X61038063Y-128255502D03*
D14*
X60373937Y-120664498D03*
%TD*%
D10*
%TO.C,SW2*%
X61429331Y-91697751D03*
D11*
X66490000Y-91255000D03*
D10*
X71550669Y-90812249D03*
D12*
X62473123Y-89056729D03*
X63516914Y-86415707D03*
X70064126Y-88392602D03*
X68577583Y-85972955D03*
%TD*%
D20*
%TO.C,D17*%
X103268800Y-124200779D03*
D21*
X102870000Y-116591221D03*
%TD*%
D15*
%TO.C,H4*%
X168910000Y-117983000D03*
%TD*%
D13*
%TO.C,D3*%
X67642063Y-134097502D03*
D14*
X66977937Y-126506498D03*
%TD*%
D20*
%TO.C,D16*%
X100021400Y-121401558D03*
D21*
X99622600Y-113792000D03*
%TD*%
D28*
%TO.C,U1*%
X182372000Y-51816000D03*
D29*
X182372000Y-54356000D03*
X182372000Y-56896000D03*
X182372000Y-59436000D03*
X182372000Y-61976000D03*
X182372000Y-64516000D03*
X182372000Y-67056000D03*
X182372000Y-69596000D03*
X182372000Y-72136000D03*
X182372000Y-74676000D03*
X182372000Y-77216000D03*
X182372000Y-79756000D03*
X182372000Y-82296000D03*
X182372000Y-84836000D03*
X182372000Y-87376000D03*
X182372000Y-89916000D03*
X182372000Y-92456000D03*
X182372000Y-94996000D03*
X182372000Y-97536000D03*
X182372000Y-100076000D03*
X197612000Y-100076000D03*
X197612000Y-97536000D03*
X197612000Y-94996000D03*
X197612000Y-92456000D03*
X197612000Y-89916000D03*
X197612000Y-87376000D03*
X197612000Y-84836000D03*
X197612000Y-82296000D03*
X197612000Y-79756000D03*
X197612000Y-77216000D03*
X197612000Y-74676000D03*
X197612000Y-72136000D03*
X197612000Y-69596000D03*
X197612000Y-67056000D03*
X197612000Y-64516000D03*
X197612000Y-61976000D03*
X197612000Y-59436000D03*
X197612000Y-56896000D03*
X197612000Y-54356000D03*
X197612000Y-51816000D03*
X193804000Y-96265000D03*
X191264000Y-96265000D03*
X188724000Y-96265000D03*
X186184000Y-96265000D03*
%TD*%
D11*
%TO.C,SW7*%
X127889000Y-128143000D03*
D10*
X122809000Y-128143000D03*
X132969000Y-128143000D03*
D12*
X125349000Y-123063000D03*
X124079000Y-125603000D03*
X131699000Y-125603000D03*
X130429000Y-123063000D03*
%TD*%
D10*
%TO.C,SW19*%
X194727102Y-150277102D03*
D11*
X191135000Y-146685000D03*
D10*
X187542898Y-143092898D03*
D12*
X190236974Y-142194872D03*
X192931051Y-141296846D03*
X195625128Y-147583026D03*
X196523154Y-144888949D03*
%TD*%
D11*
%TO.C,SW17*%
X146380200Y-82670000D03*
D10*
X141300974Y-82581342D03*
X151459426Y-82758658D03*
D12*
X142615109Y-80063893D03*
X143929245Y-77546445D03*
X150233949Y-80196881D03*
X149008471Y-77635103D03*
%TD*%
D13*
%TO.C,D10*%
X86946063Y-132421102D03*
D14*
X86281937Y-124830098D03*
%TD*%
D15*
%TO.C,H1*%
X73406000Y-60198000D03*
%TD*%
D10*
%TO.C,SW21*%
X160355774Y-83724342D03*
D11*
X165435000Y-83813000D03*
D10*
X170514226Y-83901658D03*
D12*
X162984045Y-78689445D03*
X161669909Y-81206893D03*
X169288749Y-81339881D03*
X168063271Y-78778103D03*
%TD*%
D11*
%TO.C,SW16*%
X146710200Y-63613000D03*
D10*
X141630974Y-63524342D03*
X151789426Y-63701658D03*
D12*
X142945109Y-61006893D03*
X144259245Y-58489445D03*
X150563949Y-61139881D03*
X149338471Y-58578103D03*
%TD*%
D30*
%TO.C,D19*%
X184503923Y-138711077D03*
D31*
X189892077Y-133322923D03*
%TD*%
D11*
%TO.C,SW4*%
X83827400Y-70601000D03*
D10*
X78766731Y-71043751D03*
X88888069Y-70158249D03*
D12*
X79810523Y-68402729D03*
X80854314Y-65761707D03*
X85914983Y-65318955D03*
X87401526Y-67738602D03*
%TD*%
D20*
%TO.C,D21*%
X113419400Y-123674779D03*
D21*
X113020600Y-116065221D03*
%TD*%
D10*
%TO.C,SW3*%
X63089331Y-110689751D03*
X73210669Y-109804249D03*
D11*
X68150000Y-110247000D03*
D12*
X64133123Y-108048729D03*
X65176914Y-105407707D03*
X71724126Y-107384602D03*
X70237583Y-104964955D03*
%TD*%
D32*
%TO.C,J1*%
X203351000Y-111153000D03*
X196351000Y-111153000D03*
X196351000Y-112903000D03*
X203351000Y-112903000D03*
D33*
X193051000Y-113253000D03*
X193051000Y-110803000D03*
X201551000Y-109053000D03*
X201551000Y-115003000D03*
X198551000Y-109053000D03*
X198551000Y-115003000D03*
X194551000Y-115003000D03*
X194551000Y-109053000D03*
%TD*%
D20*
%TO.C,D18*%
X106570800Y-127248779D03*
D21*
X106172000Y-119639221D03*
%TD*%
D34*
%TO.C,SW23*%
X180837200Y-122562000D03*
D35*
X185837200Y-122562000D03*
X183337200Y-122562000D03*
D36*
X177737200Y-115062000D03*
X188937200Y-115062000D03*
D35*
X185837200Y-108062000D03*
X180837200Y-108062000D03*
%TD*%
M02*
