M48
; DRILL file {KiCad 6.99.0-unknown-8f937b17a2~148~ubuntu20.04.1} date So 22 Mai 2022 21:32:20 CEST
; FORMAT={-:-/ absolute / inch / decimal}
; #@! TF.CreationDate,2022-05-22T21:32:20+02:00
; #@! TF.GenerationSoftware,Kicad,Pcbnew,6.99.0-unknown-8f937b17a2~148~ubuntu20.04.1
; #@! TF.FileFunction,NonPlated,1,2,NPTH
FMAT,2
INCH
; #@! TA.AperFunction,NonPlated,NPTH,ComponentDrill
T1C0.0472
; #@! TA.AperFunction,NonPlated,NPTH,ComponentDrill
T2C0.0689
; #@! TA.AperFunction,NonPlated,NPTH,ComponentDrill
T3C0.1570
%
G90
G05
T1
X8.2011Y-2.0151
X8.2011Y-2.2906
X8.27Y-2.0151
X8.27Y-2.2906
T2
X2.505Y-2.895
X2.505Y-3.645
X2.505Y-4.395
X2.905Y-2.895
X2.905Y-3.645
X2.905Y-4.395
X3.255Y-2.895
X3.255Y-3.645
X3.255Y-4.395
X3.655Y-2.895
X3.655Y-3.645
X3.655Y-4.395
X4.005Y-2.495
X4.005Y-3.245
X4.005Y-3.995
X4.405Y-2.495
X4.405Y-3.245
X4.405Y-3.995
X4.758Y-2.378
X4.758Y-3.128
X4.758Y-3.878
X4.835Y-5.045
X5.158Y-2.378
X5.158Y-3.128
X5.158Y-3.878
X5.235Y-5.045
X5.51Y-2.5039
X5.51Y-3.2559
X5.51Y-4.005
X5.6953Y-5.0595
X5.91Y-2.5039
X5.91Y-3.2559
X5.91Y-4.005
X6.0947Y-5.0805
X6.262Y-2.5512
X6.262Y-3.2997
X6.2622Y-4.05
X6.662Y-2.5512
X6.662Y-3.2997
X6.6622Y-4.05
X6.678Y-5.2371
X7.042Y-5.4029
X7.5386Y-5.7286
X7.79Y-4.73
X7.8214Y-6.0114
X8.19Y-4.73
T3
X2.705Y-2.895
X2.705Y-3.645
X2.705Y-4.395
X3.455Y-2.895
X3.455Y-3.645
X3.455Y-4.395
X4.205Y-2.495
X4.205Y-3.245
X4.205Y-3.995
X4.958Y-2.378
X4.958Y-3.128
X4.958Y-3.878
X5.035Y-5.045
X5.71Y-2.5039
X5.71Y-3.2559
X5.71Y-4.005
X5.895Y-5.07
X6.462Y-2.5512
X6.462Y-3.2997
X6.4622Y-4.05
X6.86Y-5.32
X7.68Y-5.87
X7.99Y-4.73
T0
M30
