%TF.GenerationSoftware,KiCad,Pcbnew,6.0.0-rc1-unknown-db41769bb9~144~ubuntu20.04.1*%
%TF.CreationDate,2021-12-01T14:16:25+01:00*%
%TF.ProjectId,khada,6b686164-612e-46b6-9963-61645f706362,rev?*%
%TF.SameCoordinates,Original*%
%TF.FileFunction,Copper,L2,Bot*%
%TF.FilePolarity,Positive*%
%FSLAX46Y46*%
G04 Gerber Fmt 4.6, Leading zero omitted, Abs format (unit mm)*
G04 Created by KiCad (PCBNEW 6.0.0-rc1-unknown-db41769bb9~144~ubuntu20.04.1) date 2021-12-01 14:16:25*
%MOMM*%
%LPD*%
G01*
G04 APERTURE LIST*
G04 Aperture macros list*
%AMRoundRect*
0 Rectangle with rounded corners*
0 $1 Rounding radius*
0 $2 $3 $4 $5 $6 $7 $8 $9 X,Y pos of 4 corners*
0 Add a 4 corners polygon primitive as box body*
4,1,4,$2,$3,$4,$5,$6,$7,$8,$9,$2,$3,0*
0 Add four circle primitives for the rounded corners*
1,1,$1+$1,$2,$3*
1,1,$1+$1,$4,$5*
1,1,$1+$1,$6,$7*
1,1,$1+$1,$8,$9*
0 Add four rect primitives between the rounded corners*
20,1,$1+$1,$2,$3,$4,$5,0*
20,1,$1+$1,$4,$5,$6,$7,0*
20,1,$1+$1,$6,$7,$8,$9,0*
20,1,$1+$1,$8,$9,$2,$3,0*%
%AMHorizOval*
0 Thick line with rounded ends*
0 $1 width*
0 $2 $3 position (X,Y) of the first rounded end (center of the circle)*
0 $4 $5 position (X,Y) of the second rounded end (center of the circle)*
0 Add line between two ends*
20,1,$1,$2,$3,$4,$5,0*
0 Add two circle primitives to create the rounded ends*
1,1,$1,$2,$3*
1,1,$1,$4,$5*%
G04 Aperture macros list end*
%TA.AperFunction,ComponentPad*%
%ADD10C,2.300000*%
%TD*%
%TA.AperFunction,ComponentPad*%
%ADD11RoundRect,0.160000X0.693344X-0.581785X0.581785X0.693344X-0.693344X0.581785X-0.581785X-0.693344X0*%
%TD*%
%TA.AperFunction,ComponentPad*%
%ADD12HorizOval,1.600000X0.000000X0.000000X0.000000X0.000000X0*%
%TD*%
%TA.AperFunction,ComponentPad*%
%ADD13C,4.000000*%
%TD*%
%TA.AperFunction,ComponentPad*%
%ADD14RoundRect,0.160000X0.905097X0.000000X0.000000X0.905097X-0.905097X0.000000X0.000000X-0.905097X0*%
%TD*%
%TA.AperFunction,ComponentPad*%
%ADD15HorizOval,1.600000X0.000000X0.000000X0.000000X0.000000X0*%
%TD*%
%TA.AperFunction,ComponentPad*%
%ADD16RoundRect,0.160000X0.353649X-0.833146X0.833146X0.353649X-0.353649X0.833146X-0.833146X-0.353649X0*%
%TD*%
%TA.AperFunction,ComponentPad*%
%ADD17HorizOval,1.600000X0.000000X0.000000X0.000000X0.000000X0*%
%TD*%
%TA.AperFunction,ComponentPad*%
%ADD18RoundRect,0.160000X0.672618X-0.605628X0.605628X0.672618X-0.672618X0.605628X-0.605628X-0.672618X0*%
%TD*%
%TA.AperFunction,ComponentPad*%
%ADD19HorizOval,1.600000X0.000000X0.000000X0.000000X0.000000X0*%
%TD*%
%TA.AperFunction,ComponentPad*%
%ADD20RoundRect,0.160000X0.640000X-0.640000X0.640000X0.640000X-0.640000X0.640000X-0.640000X-0.640000X0*%
%TD*%
%TA.AperFunction,ComponentPad*%
%ADD21O,1.600000X1.600000*%
%TD*%
%TA.AperFunction,ComponentPad*%
%ADD22C,1.400000*%
%TD*%
%TA.AperFunction,ComponentPad*%
%ADD23O,1.400000X1.400000*%
%TD*%
%TA.AperFunction,ComponentPad*%
%ADD24RoundRect,0.160000X0.605628X-0.672618X0.672618X0.605628X-0.605628X0.672618X-0.672618X-0.605628X0*%
%TD*%
%TA.AperFunction,ComponentPad*%
%ADD25HorizOval,1.600000X0.000000X0.000000X0.000000X0.000000X0*%
%TD*%
%TA.AperFunction,ComponentPad*%
%ADD26R,1.700000X1.700000*%
%TD*%
%TA.AperFunction,ComponentPad*%
%ADD27C,1.700000*%
%TD*%
%TA.AperFunction,ComponentPad*%
%ADD28RoundRect,0.160000X0.000000X-0.905097X0.905097X0.000000X0.000000X0.905097X-0.905097X0.000000X0*%
%TD*%
%TA.AperFunction,ComponentPad*%
%ADD29HorizOval,1.600000X0.000000X0.000000X0.000000X0.000000X0*%
%TD*%
%TA.AperFunction,ComponentPad*%
%ADD30O,2.500000X1.700000*%
%TD*%
%TA.AperFunction,ComponentPad*%
%ADD31R,2.000000X2.000000*%
%TD*%
%TA.AperFunction,ComponentPad*%
%ADD32C,2.000000*%
%TD*%
%TA.AperFunction,ComponentPad*%
%ADD33R,2.000000X3.200000*%
%TD*%
%TA.AperFunction,ViaPad*%
%ADD34C,0.800000*%
%TD*%
%TA.AperFunction,Conductor*%
%ADD35C,0.254000*%
%TD*%
%TA.AperFunction,Conductor*%
%ADD36C,0.500000*%
%TD*%
G04 APERTURE END LIST*
D10*
%TO.P,SW6,1,1*%
%TO.N,Net-(D6-Pad2)*%
X83130523Y-106386729D03*
X84174314Y-103745707D03*
%TO.P,SW6,2,2*%
%TO.N,col1*%
X89234983Y-103302955D03*
X90721526Y-105722602D03*
%TD*%
%TO.P,SW8,1,1*%
%TO.N,Net-(D8-Pad2)*%
X100361288Y-60035881D03*
X101496614Y-57432895D03*
%TO.P,SW8,2,2*%
%TO.N,col2*%
X107970845Y-59637081D03*
X106569652Y-57167029D03*
%TD*%
D11*
%TO.P,D12,1,K*%
%TO.N,row0*%
X90756063Y-125664702D03*
D12*
%TO.P,D12,2,A*%
%TO.N,Net-(D12-Pad2)*%
X90091937Y-118073698D03*
%TD*%
D11*
%TO.P,D4,1,K*%
%TO.N,row0*%
X70944063Y-127391902D03*
D12*
%TO.P,D4,2,A*%
%TO.N,Net-(D4-Pad2)*%
X70279937Y-119800898D03*
%TD*%
D11*
%TO.P,D14,1,K*%
%TO.N,row2*%
X97334663Y-131506702D03*
D12*
%TO.P,D14,2,A*%
%TO.N,Net-(D14-Pad2)*%
X96670537Y-123915698D03*
%TD*%
D11*
%TO.P,D6,1,K*%
%TO.N,row2*%
X77548063Y-133233902D03*
D12*
%TO.P,D6,2,A*%
%TO.N,Net-(D6-Pad2)*%
X76883937Y-125642898D03*
%TD*%
D13*
%TO.P,H3,*%
%TO.N,*%
X78105000Y-114554000D03*
%TD*%
D10*
%TO.P,SW1,1,1*%
%TO.N,Net-(D1-Pad2)*%
X60813123Y-70064729D03*
X61856914Y-67423707D03*
%TO.P,SW1,2,2*%
%TO.N,col0*%
X66917583Y-66980955D03*
X68404126Y-69400602D03*
%TD*%
D13*
%TO.P,H5,*%
%TO.N,*%
X180467000Y-141478000D03*
%TD*%
%TO.P,H2,*%
%TO.N,*%
X156464000Y-56388000D03*
%TD*%
D14*
%TO.P,D23,1,K*%
%TO.N,row3*%
X198020077Y-128627277D03*
D15*
%TO.P,D23,2,A*%
%TO.N,Net-(D23-Pad2)*%
X192631923Y-123239123D03*
%TD*%
D11*
%TO.P,D8,1,K*%
%TO.N,row0*%
X80342063Y-126579102D03*
D12*
%TO.P,D8,2,A*%
%TO.N,Net-(D8-Pad2)*%
X79677937Y-118988098D03*
%TD*%
D16*
%TO.P,D15,1,K*%
%TO.N,row3*%
X181833749Y-137136570D03*
D17*
%TO.P,D15,2,A*%
%TO.N,Net-(D15-Pad2)*%
X184688251Y-130071430D03*
%TD*%
D10*
%TO.P,SW14,1,1*%
%TO.N,Net-(D14-Pad2)*%
X123698000Y-93472000D03*
X122428000Y-96012000D03*
%TO.P,SW14,2,2*%
%TO.N,col3*%
X130048000Y-96012000D03*
X128778000Y-93472000D03*
%TD*%
D18*
%TO.P,D20,1,K*%
%TO.N,row0*%
X110126800Y-120873379D03*
D19*
%TO.P,D20,2,A*%
%TO.N,Net-(D20-Pad2)*%
X109728000Y-113263821D03*
%TD*%
D11*
%TO.P,D13,1,K*%
%TO.N,row1*%
X94058063Y-128458702D03*
D12*
%TO.P,D13,2,A*%
%TO.N,Net-(D13-Pad2)*%
X93393937Y-120867698D03*
%TD*%
D10*
%TO.P,SW15,1,1*%
%TO.N,Net-(D15-Pad2)*%
X171477832Y-128162301D03*
X169316334Y-130004155D03*
%TO.P,SW15,2,2*%
%TO.N,col3*%
X176153996Y-130147215D03*
X176330581Y-132981526D03*
%TD*%
D18*
%TO.P,D22,1,K*%
%TO.N,row2*%
X116719400Y-126714779D03*
D19*
%TO.P,D22,2,A*%
%TO.N,Net-(D22-Pad2)*%
X116320600Y-119105221D03*
%TD*%
D10*
%TO.P,SW9,1,1*%
%TO.N,Net-(D9-Pad2)*%
X102496614Y-76474895D03*
X101361288Y-79077881D03*
%TO.P,SW9,2,2*%
%TO.N,col2*%
X107569652Y-76209029D03*
X108970845Y-78679081D03*
%TD*%
D20*
%TO.P,D7,1,K*%
%TO.N,row3*%
X138557000Y-127254000D03*
D21*
%TO.P,D7,2,A*%
%TO.N,Net-(D7-Pad2)*%
X138557000Y-119634000D03*
%TD*%
D10*
%TO.P,SW18,1,1*%
%TO.N,Net-(D18-Pad2)*%
X142284909Y-99120893D03*
X143599045Y-96603445D03*
%TO.P,SW18,2,2*%
%TO.N,col4*%
X148678271Y-96692103D03*
X149903749Y-99253881D03*
%TD*%
%TO.P,SW5,1,1*%
%TO.N,Net-(D5-Pad2)*%
X82514314Y-84753707D03*
X81470523Y-87394729D03*
%TO.P,SW5,2,2*%
%TO.N,col1*%
X87574983Y-84310955D03*
X89061526Y-86730602D03*
%TD*%
%TO.P,SW11,1,1*%
%TO.N,Net-(D11-Pad2)*%
X146061155Y-126042081D03*
X147462348Y-123572029D03*
%TO.P,SW11,2,2*%
%TO.N,col2*%
X153670712Y-126440881D03*
X152535386Y-123837895D03*
%TD*%
%TO.P,SW22,1,1*%
%TO.N,Net-(D22-Pad2)*%
X161339909Y-100263893D03*
X162654045Y-97746445D03*
%TO.P,SW22,2,2*%
%TO.N,col5*%
X168958749Y-100396881D03*
X167733271Y-97835103D03*
%TD*%
D11*
%TO.P,D2,1,K*%
%TO.N,row1*%
X64340063Y-131049502D03*
D12*
%TO.P,D2,2,A*%
%TO.N,Net-(D2-Pad2)*%
X63675937Y-123458498D03*
%TD*%
D10*
%TO.P,SW12,1,1*%
%TO.N,Net-(D12-Pad2)*%
X122428000Y-57912000D03*
X123698000Y-55372000D03*
%TO.P,SW12,2,2*%
%TO.N,col3*%
X130048000Y-57912000D03*
X128778000Y-55372000D03*
%TD*%
D22*
%TO.P,R1,1*%
%TO.N,+5V*%
X195834000Y-105537000D03*
D23*
%TO.P,R1,2*%
%TO.N,DATA*%
X200914000Y-105537000D03*
%TD*%
D10*
%TO.P,SW13,1,1*%
%TO.N,Net-(D13-Pad2)*%
X123698000Y-74422000D03*
X122428000Y-76962000D03*
%TO.P,SW13,2,2*%
%TO.N,col3*%
X128778000Y-74422000D03*
X130048000Y-76962000D03*
%TD*%
%TO.P,SW20,1,1*%
%TO.N,Net-(D20-Pad2)*%
X163314045Y-59632445D03*
X161999909Y-62149893D03*
%TO.P,SW20,2,2*%
%TO.N,col5*%
X168393271Y-59721103D03*
X169618749Y-62282881D03*
%TD*%
D11*
%TO.P,D9,1,K*%
%TO.N,row1*%
X83644063Y-129373102D03*
D12*
%TO.P,D9,2,A*%
%TO.N,Net-(D9-Pad2)*%
X82979937Y-121782098D03*
%TD*%
D10*
%TO.P,SW10,1,1*%
%TO.N,Net-(D10-Pad2)*%
X102362000Y-98119881D03*
X103497326Y-95516895D03*
%TO.P,SW10,2,2*%
%TO.N,col2*%
X109971557Y-97721081D03*
X108570364Y-95251029D03*
%TD*%
D24*
%TO.P,D11,1,K*%
%TO.N,row3*%
X160455600Y-128491702D03*
D25*
%TO.P,D11,2,A*%
%TO.N,Net-(D11-Pad2)*%
X160854400Y-120882144D03*
%TD*%
D11*
%TO.P,D5,1,K*%
%TO.N,row1*%
X74246063Y-130185902D03*
D12*
%TO.P,D5,2,A*%
%TO.N,Net-(D5-Pad2)*%
X73581937Y-122594898D03*
%TD*%
D11*
%TO.P,D1,1,K*%
%TO.N,row0*%
X61038063Y-128255502D03*
D12*
%TO.P,D1,2,A*%
%TO.N,Net-(D1-Pad2)*%
X60373937Y-120664498D03*
%TD*%
D10*
%TO.P,SW2,1,1*%
%TO.N,Net-(D2-Pad2)*%
X62473123Y-89056729D03*
X63516914Y-86415707D03*
%TO.P,SW2,2,2*%
%TO.N,col0*%
X70064126Y-88392602D03*
X68577583Y-85972955D03*
%TD*%
D18*
%TO.P,D17,1,K*%
%TO.N,row1*%
X103268800Y-124200779D03*
D19*
%TO.P,D17,2,A*%
%TO.N,Net-(D17-Pad2)*%
X102870000Y-116591221D03*
%TD*%
D13*
%TO.P,H4,*%
%TO.N,*%
X168910000Y-117983000D03*
%TD*%
D11*
%TO.P,D3,1,K*%
%TO.N,row2*%
X67642063Y-134097502D03*
D12*
%TO.P,D3,2,A*%
%TO.N,Net-(D3-Pad2)*%
X66977937Y-126506498D03*
%TD*%
D18*
%TO.P,D16,1,K*%
%TO.N,row0*%
X100021400Y-121401558D03*
D19*
%TO.P,D16,2,A*%
%TO.N,Net-(D16-Pad2)*%
X99622600Y-113792000D03*
%TD*%
D26*
%TO.P,U1,1,PB12*%
%TO.N,unconnected-(U1-Pad1)*%
X182372000Y-51816000D03*
D27*
%TO.P,U1,2,PB13*%
%TO.N,unconnected-(U1-Pad2)*%
X182372000Y-54356000D03*
%TO.P,U1,3,PB14*%
%TO.N,unconnected-(U1-Pad3)*%
X182372000Y-56896000D03*
%TO.P,U1,4,PB15*%
%TO.N,unconnected-(U1-Pad4)*%
X182372000Y-59436000D03*
%TO.P,U1,5,PA8*%
%TO.N,unconnected-(U1-Pad5)*%
X182372000Y-61976000D03*
%TO.P,U1,6,PA9*%
%TO.N,unconnected-(U1-Pad6)*%
X182372000Y-64516000D03*
%TO.P,U1,7,PA10*%
%TO.N,unconnected-(U1-Pad7)*%
X182372000Y-67056000D03*
%TO.P,U1,8,PA11*%
%TO.N,unconnected-(U1-Pad8)*%
X182372000Y-69596000D03*
%TO.P,U1,9,PA12*%
%TO.N,unconnected-(U1-Pad9)*%
X182372000Y-72136000D03*
%TO.P,U1,10,PA15*%
%TO.N,col0*%
X182372000Y-74676000D03*
%TO.P,U1,11,PB3*%
%TO.N,col1*%
X182372000Y-77216000D03*
%TO.P,U1,12,PB4*%
%TO.N,col2*%
X182372000Y-79756000D03*
%TO.P,U1,13,PB5*%
%TO.N,col3*%
X182372000Y-82296000D03*
%TO.P,U1,14,PB6*%
%TO.N,col4*%
X182372000Y-84836000D03*
%TO.P,U1,15,PB7*%
%TO.N,col5*%
X182372000Y-87376000D03*
%TO.P,U1,16,PB8*%
%TO.N,ROTA*%
X182372000Y-89916000D03*
%TO.P,U1,17,PB9*%
%TO.N,ROTB*%
X182372000Y-92456000D03*
%TO.P,U1,18,5V*%
%TO.N,+5V*%
X182372000Y-94996000D03*
%TO.P,U1,19,GND*%
%TO.N,GND*%
X182372000Y-97536000D03*
%TO.P,U1,20,3V3*%
%TO.N,unconnected-(U1-Pad20)*%
X182372000Y-100076000D03*
%TO.P,U1,21,VBat*%
%TO.N,unconnected-(U1-Pad21)*%
X197612000Y-100076000D03*
%TO.P,U1,22,PC13*%
%TO.N,unconnected-(U1-Pad22)*%
X197612000Y-97536000D03*
%TO.P,U1,23,PC14*%
%TO.N,unconnected-(U1-Pad23)*%
X197612000Y-94996000D03*
%TO.P,U1,24,PC15*%
%TO.N,unconnected-(U1-Pad24)*%
X197612000Y-92456000D03*
%TO.P,U1,25,RES*%
%TO.N,unconnected-(U1-Pad25)*%
X197612000Y-89916000D03*
%TO.P,U1,26,PA0*%
%TO.N,unconnected-(U1-Pad26)*%
X197612000Y-87376000D03*
%TO.P,U1,27,PA1*%
%TO.N,unconnected-(U1-Pad27)*%
X197612000Y-84836000D03*
%TO.P,U1,28,PA2*%
%TO.N,DATA*%
X197612000Y-82296000D03*
%TO.P,U1,29,PA3*%
%TO.N,row0*%
X197612000Y-79756000D03*
%TO.P,U1,30,PA4*%
%TO.N,row1*%
X197612000Y-77216000D03*
%TO.P,U1,31,PA5*%
%TO.N,row2*%
X197612000Y-74676000D03*
%TO.P,U1,32,PA6*%
%TO.N,row3*%
X197612000Y-72136000D03*
%TO.P,U1,33,PA7*%
%TO.N,unconnected-(U1-Pad33)*%
X197612000Y-69596000D03*
%TO.P,U1,34,PB0*%
%TO.N,unconnected-(U1-Pad34)*%
X197612000Y-67056000D03*
%TO.P,U1,35,PB1*%
%TO.N,unconnected-(U1-Pad35)*%
X197612000Y-64516000D03*
%TO.P,U1,36,PB2*%
%TO.N,unconnected-(U1-Pad36)*%
X197612000Y-61976000D03*
%TO.P,U1,37,PB10*%
%TO.N,unconnected-(U1-Pad37)*%
X197612000Y-59436000D03*
%TO.P,U1,38,3V3*%
%TO.N,unconnected-(U1-Pad38)*%
X197612000Y-56896000D03*
%TO.P,U1,39,GND*%
%TO.N,GND*%
X197612000Y-54356000D03*
%TO.P,U1,40,5V*%
%TO.N,unconnected-(U1-Pad40)*%
X197612000Y-51816000D03*
%TO.P,U1,41,GND*%
%TO.N,GND*%
X193804000Y-96265000D03*
%TO.P,U1,42,SWCLK*%
%TO.N,unconnected-(U1-Pad42)*%
X191264000Y-96265000D03*
%TO.P,U1,43,SWIO*%
%TO.N,unconnected-(U1-Pad43)*%
X188724000Y-96265000D03*
%TO.P,U1,44,3V3*%
%TO.N,unconnected-(U1-Pad44)*%
X186184000Y-96265000D03*
%TD*%
D10*
%TO.P,SW7,1,1*%
%TO.N,Net-(D7-Pad2)*%
X125349000Y-123063000D03*
X124079000Y-125603000D03*
%TO.P,SW7,2,2*%
%TO.N,col1*%
X131699000Y-125603000D03*
X130429000Y-123063000D03*
%TD*%
%TO.P,SW19,1,1*%
%TO.N,Net-(D19-Pad2)*%
X190236974Y-142194872D03*
X192931051Y-141296846D03*
%TO.P,SW19,2,2*%
%TO.N,col4*%
X195625128Y-147583026D03*
X196523154Y-144888949D03*
%TD*%
%TO.P,SW17,1,1*%
%TO.N,Net-(D17-Pad2)*%
X142615109Y-80063893D03*
X143929245Y-77546445D03*
%TO.P,SW17,2,2*%
%TO.N,col4*%
X150233949Y-80196881D03*
X149008471Y-77635103D03*
%TD*%
D11*
%TO.P,D10,1,K*%
%TO.N,row2*%
X86946063Y-132421102D03*
D12*
%TO.P,D10,2,A*%
%TO.N,Net-(D10-Pad2)*%
X86281937Y-124830098D03*
%TD*%
D13*
%TO.P,H1,*%
%TO.N,*%
X73406000Y-60198000D03*
%TD*%
D10*
%TO.P,SW21,1,1*%
%TO.N,Net-(D21-Pad2)*%
X162984045Y-78689445D03*
X161669909Y-81206893D03*
%TO.P,SW21,2,2*%
%TO.N,col5*%
X169288749Y-81339881D03*
X168063271Y-78778103D03*
%TD*%
%TO.P,SW16,1,1*%
%TO.N,Net-(D16-Pad2)*%
X142945109Y-61006893D03*
X144259245Y-58489445D03*
%TO.P,SW16,2,2*%
%TO.N,col4*%
X150563949Y-61139881D03*
X149338471Y-58578103D03*
%TD*%
D28*
%TO.P,D19,1,K*%
%TO.N,row3*%
X184503923Y-138711077D03*
D29*
%TO.P,D19,2,A*%
%TO.N,Net-(D19-Pad2)*%
X189892077Y-133322923D03*
%TD*%
D10*
%TO.P,SW4,1,1*%
%TO.N,Net-(D4-Pad2)*%
X79810523Y-68402729D03*
X80854314Y-65761707D03*
%TO.P,SW4,2,2*%
%TO.N,col1*%
X85914983Y-65318955D03*
X87401526Y-67738602D03*
%TD*%
D18*
%TO.P,D21,1,K*%
%TO.N,row1*%
X113419400Y-123674779D03*
D19*
%TO.P,D21,2,A*%
%TO.N,Net-(D21-Pad2)*%
X113020600Y-116065221D03*
%TD*%
D10*
%TO.P,SW3,1,1*%
%TO.N,Net-(D3-Pad2)*%
X64133123Y-108048729D03*
X65176914Y-105407707D03*
%TO.P,SW3,2,2*%
%TO.N,col0*%
X71724126Y-107384602D03*
X70237583Y-104964955D03*
%TD*%
D30*
%TO.P,J1,A*%
%TO.N,unconnected-(J1-PadA)*%
X193051000Y-113253000D03*
X193051000Y-110803000D03*
%TO.P,J1,B*%
%TO.N,DATA*%
X201551000Y-109053000D03*
X201551000Y-115003000D03*
%TO.P,J1,C*%
%TO.N,+5V*%
X198551000Y-109053000D03*
X198551000Y-115003000D03*
%TO.P,J1,D*%
%TO.N,GND*%
X194551000Y-115003000D03*
X194551000Y-109053000D03*
%TD*%
D18*
%TO.P,D18,1,K*%
%TO.N,row2*%
X106570800Y-127248779D03*
D19*
%TO.P,D18,2,A*%
%TO.N,Net-(D18-Pad2)*%
X106172000Y-119639221D03*
%TD*%
D31*
%TO.P,SW23,A,A*%
%TO.N,ROTA*%
X180837200Y-122562000D03*
D32*
%TO.P,SW23,B,B*%
%TO.N,ROTB*%
X185837200Y-122562000D03*
%TO.P,SW23,C,C*%
%TO.N,GND*%
X183337200Y-122562000D03*
D33*
%TO.P,SW23,MP*%
%TO.N,N/C*%
X177737200Y-115062000D03*
X188937200Y-115062000D03*
D32*
%TO.P,SW23,S1,S1*%
%TO.N,Net-(D23-Pad2)*%
X185837200Y-108062000D03*
%TO.P,SW23,S2,S2*%
%TO.N,col5*%
X180837200Y-108062000D03*
%TD*%
D34*
%TO.N,GND*%
X190690500Y-105854500D03*
X193804000Y-86104000D03*
%TD*%
D35*
%TO.N,row0*%
X201117200Y-83261200D02*
X197612000Y-79756000D01*
X178308137Y-102037440D02*
X199460560Y-102037440D01*
X167315574Y-113030000D02*
X178308137Y-102037440D01*
X199460560Y-102037440D02*
X201117200Y-100380800D01*
X201117200Y-100380800D02*
X201117200Y-83261200D01*
X125984000Y-113030000D02*
X167315574Y-113030000D01*
X118120442Y-120893558D02*
X125984000Y-113030000D01*
X110126800Y-120893558D02*
X118120442Y-120893558D01*
%TO.N,Net-(D1-Pad2)*%
X60813123Y-70064729D02*
X60813123Y-68467498D01*
X58326810Y-71721190D02*
X59983271Y-70064729D01*
X60813123Y-68467498D02*
X61856914Y-67423707D01*
X58326810Y-118617371D02*
X58326810Y-71721190D01*
X60373937Y-120664498D02*
X58326810Y-118617371D01*
%TO.N,row1*%
X115790183Y-123941558D02*
X126194222Y-113537520D01*
X178518358Y-102544960D02*
X199670782Y-102544960D01*
X201624720Y-100591021D02*
X201624720Y-81228720D01*
X167525796Y-113537520D02*
X178518358Y-102544960D01*
X199670782Y-102544960D02*
X201624720Y-100591021D01*
X113428800Y-123941558D02*
X115790183Y-123941558D01*
X201624720Y-81228720D02*
X197612000Y-77216000D01*
X126194222Y-113537520D02*
X167525796Y-113537520D01*
%TO.N,Net-(D2-Pad2)*%
X63675937Y-120157607D02*
X58834330Y-115316000D01*
X62473123Y-87459498D02*
X63516914Y-86415707D01*
X63675937Y-123712498D02*
X63675937Y-120157607D01*
X60803271Y-89056729D02*
X62473123Y-89056729D01*
X62473123Y-89056729D02*
X62473123Y-87459498D01*
X58834330Y-91025670D02*
X60803271Y-89056729D01*
X58834330Y-115316000D02*
X58834330Y-91025670D01*
%TO.N,row2*%
X202132240Y-79196240D02*
X197612000Y-74676000D01*
X167736018Y-114045040D02*
X178728579Y-103052480D01*
X116730800Y-126989558D02*
X116730800Y-123718683D01*
X178728579Y-103052480D02*
X199881004Y-103052480D01*
X200178302Y-102755181D02*
X202132240Y-100801242D01*
X126404444Y-114045040D02*
X167736018Y-114045040D01*
X202132240Y-100801242D02*
X202132240Y-79196240D01*
X199881004Y-103052480D02*
X200178302Y-102755181D01*
X116730800Y-123718683D02*
X126404444Y-114045040D01*
%TO.N,Net-(D3-Pad2)*%
X64133123Y-108048729D02*
X64133123Y-106451498D01*
X59341850Y-110838150D02*
X62142271Y-108037729D01*
X62142271Y-108037729D02*
X64055123Y-108037729D01*
X66977937Y-122741865D02*
X59341850Y-115105778D01*
X59341850Y-115105778D02*
X59341850Y-110838150D01*
X66977937Y-126760498D02*
X66977937Y-122741865D01*
X64133123Y-106451498D02*
X65176914Y-105407707D01*
%TO.N,row3*%
X184503923Y-135536077D02*
X191412723Y-128627277D01*
X138557000Y-127254000D02*
X138557000Y-127127000D01*
X141351000Y-124333000D02*
X141351000Y-117094000D01*
X138557000Y-127127000D02*
X141351000Y-124333000D01*
X167946240Y-114552560D02*
X178938800Y-103560000D01*
X202639760Y-101011463D02*
X202639760Y-77163760D01*
X200091227Y-103559999D02*
X200685821Y-102965402D01*
X200685821Y-102965402D02*
X202639760Y-101011463D01*
X202639760Y-77163760D02*
X197612000Y-72136000D01*
X143892440Y-114552560D02*
X167946240Y-114552560D01*
X141351000Y-117094000D02*
X143892440Y-114552560D01*
X184503923Y-138711077D02*
X184503923Y-135536077D01*
X191412723Y-128627277D02*
X198020077Y-128627277D01*
X178938800Y-103560000D02*
X200091227Y-103559999D01*
%TO.N,Net-(D4-Pad2)*%
X79777723Y-68261329D02*
X77026671Y-68261329D01*
X74676000Y-117906800D02*
X72680302Y-119902498D01*
X79810523Y-66805498D02*
X80854314Y-65761707D01*
X77026671Y-68261329D02*
X74676000Y-70612000D01*
X72680302Y-119902498D02*
X70279937Y-119902498D01*
X74676000Y-70612000D02*
X74676000Y-117906800D01*
X79810523Y-68402729D02*
X79810523Y-66805498D01*
%TO.N,Net-(D5-Pad2)*%
X75184000Y-90170000D02*
X75184000Y-121348435D01*
X75184000Y-121348435D02*
X73581937Y-122950498D01*
X81470523Y-87394729D02*
X81470523Y-85797498D01*
X81470523Y-85797498D02*
X82514314Y-84753707D01*
X78017271Y-87336729D02*
X75184000Y-90170000D01*
X81454123Y-87336729D02*
X78017271Y-87336729D01*
%TO.N,Net-(D6-Pad2)*%
X75692000Y-124806561D02*
X76883937Y-125998498D01*
X78271271Y-106386729D02*
X75692000Y-108966000D01*
X83130523Y-104789498D02*
X84174314Y-103745707D01*
X83130523Y-106386729D02*
X83130523Y-104789498D01*
X75692000Y-108966000D02*
X75692000Y-124806561D01*
X83105123Y-106386729D02*
X78271271Y-106386729D01*
%TO.N,Net-(D7-Pad2)*%
X125349000Y-123063000D02*
X128778000Y-119634000D01*
X128778000Y-119634000D02*
X138557000Y-119634000D01*
X124079000Y-125603000D02*
X125349000Y-124333000D01*
X125349000Y-124333000D02*
X125349000Y-123063000D01*
%TO.N,Net-(D8-Pad2)*%
X93726000Y-108419516D02*
X93726000Y-64008000D01*
X97698119Y-60035881D02*
X100361288Y-60035881D01*
X100361288Y-58568221D02*
X101496614Y-57432895D01*
X79692435Y-119126000D02*
X83019516Y-119126000D01*
X100361288Y-60035881D02*
X100361288Y-58568221D01*
X93726000Y-64008000D02*
X97698119Y-60035881D01*
X83019516Y-119126000D02*
X93726000Y-108419516D01*
%TO.N,Net-(D9-Pad2)*%
X82979937Y-119883321D02*
X94233520Y-108629738D01*
X101361288Y-79077881D02*
X101361288Y-77610221D01*
X98214119Y-79077881D02*
X101361288Y-79077881D01*
X94233520Y-108629738D02*
X94233520Y-83058480D01*
X101361288Y-77610221D02*
X102496614Y-76474895D01*
X82979937Y-122188498D02*
X82979937Y-119883321D01*
X94233520Y-83058480D02*
X98214119Y-79077881D01*
%TO.N,Net-(D10-Pad2)*%
X94742000Y-102108000D02*
X98730119Y-98119881D01*
X86281937Y-117299063D02*
X94742000Y-108839000D01*
X86281937Y-125236498D02*
X86281937Y-117299063D01*
X98730119Y-98119881D02*
X102362000Y-98119881D01*
X94742000Y-108839000D02*
X94742000Y-102108000D01*
X102362000Y-98119881D02*
X102362000Y-96652221D01*
X102362000Y-96652221D02*
X103497326Y-95516895D01*
%TO.N,Net-(D11-Pad2)*%
X147462348Y-123572029D02*
X150152233Y-120882144D01*
X150152233Y-120882144D02*
X160854400Y-120882144D01*
X146061155Y-126042081D02*
X147462348Y-124640888D01*
X147462348Y-124640888D02*
X147462348Y-123572029D01*
%TO.N,Net-(D12-Pad2)*%
X100584000Y-106426000D02*
X110236000Y-106426000D01*
X90091937Y-116918063D02*
X100584000Y-106426000D01*
X114300000Y-102362000D02*
X114300000Y-62738000D01*
X90091937Y-118378498D02*
X90091937Y-116918063D01*
X119126000Y-57912000D02*
X122428000Y-57912000D01*
X110236000Y-106426000D02*
X114300000Y-102362000D01*
X123698000Y-55372000D02*
X122428000Y-56642000D01*
X122428000Y-56642000D02*
X122428000Y-57912000D01*
X114300000Y-62738000D02*
X119126000Y-57912000D01*
%TO.N,Net-(D13-Pad2)*%
X122428000Y-75692000D02*
X122428000Y-76962000D01*
X110445741Y-106934000D02*
X114807520Y-102572221D01*
X114807520Y-102572221D02*
X114807520Y-81026480D01*
X114807520Y-81026480D02*
X118872000Y-76962000D01*
X93393937Y-114333805D02*
X100793742Y-106934000D01*
X118872000Y-76962000D02*
X122428000Y-76962000D01*
X123698000Y-74422000D02*
X122428000Y-75692000D01*
X93393937Y-121172498D02*
X93393937Y-114333805D01*
X100793742Y-106934000D02*
X110445741Y-106934000D01*
%TO.N,Net-(D14-Pad2)*%
X115315040Y-102782442D02*
X110655962Y-107441520D01*
X115315040Y-99365760D02*
X115315040Y-102782442D01*
X122428000Y-96012000D02*
X118668800Y-96012000D01*
X122428000Y-94742000D02*
X122428000Y-96012000D01*
X96695937Y-111749547D02*
X96695937Y-124220498D01*
X118668800Y-96012000D02*
X115315040Y-99365760D01*
X101003964Y-107441520D02*
X96695937Y-111749547D01*
X110655962Y-107441520D02*
X101003964Y-107441520D01*
X123698000Y-93472000D02*
X122428000Y-94742000D01*
%TO.N,Net-(D15-Pad2)*%
X169316334Y-130004155D02*
X171158188Y-128162301D01*
X171158188Y-128162301D02*
X171477832Y-128162301D01*
X182779122Y-128162301D02*
X184688251Y-130071430D01*
X171477832Y-128162301D02*
X182779122Y-128162301D01*
%TO.N,Net-(D16-Pad2)*%
X110866183Y-107949040D02*
X113405224Y-105410000D01*
X113405224Y-105410000D02*
X131064000Y-105410000D01*
X139918507Y-60995493D02*
X142945309Y-60995493D01*
X144259245Y-58489445D02*
X142945109Y-59803581D01*
X131064000Y-105410000D02*
X136398000Y-100076000D01*
X142945109Y-59803581D02*
X142945109Y-61006893D01*
X105664960Y-107949040D02*
X110866183Y-107949040D01*
X99822000Y-113792000D02*
X105664960Y-107949040D01*
X136398000Y-64516000D02*
X139918507Y-60995493D01*
X136398000Y-100076000D02*
X136398000Y-64516000D01*
%TO.N,Net-(D17-Pad2)*%
X113615446Y-105917520D02*
X131274221Y-105917520D01*
X102870000Y-116840000D02*
X102870000Y-111461742D01*
X136905520Y-82804480D02*
X139664507Y-80045493D01*
X105875182Y-108456560D02*
X111076404Y-108456560D01*
X111076404Y-108456560D02*
X113615446Y-105917520D01*
X136905520Y-100286221D02*
X136905520Y-82804480D01*
X131274221Y-105917520D02*
X136905520Y-100286221D01*
X142615109Y-78860581D02*
X142615109Y-80063893D01*
X102870000Y-111461742D02*
X105875182Y-108456560D01*
X139664507Y-80045493D02*
X142589709Y-80045493D01*
X143929245Y-77546445D02*
X142615109Y-78860581D01*
%TO.N,Net-(D18-Pad2)*%
X113825668Y-106425040D02*
X131484442Y-106425040D01*
X138788589Y-99120893D02*
X142284909Y-99120893D01*
X142284909Y-97917581D02*
X142284909Y-99120893D01*
X111286625Y-108964080D02*
X113825668Y-106425040D01*
X131484442Y-106425040D02*
X138788589Y-99120893D01*
X106172000Y-119888000D02*
X106172000Y-109726080D01*
X143599045Y-96603445D02*
X142284909Y-97917581D01*
X106172000Y-109726080D02*
X106934000Y-108964080D01*
X106934000Y-108964080D02*
X111286625Y-108964080D01*
%TO.N,Net-(D19-Pad2)*%
X190236974Y-133667820D02*
X189892077Y-133322923D01*
X190236974Y-142194872D02*
X192033025Y-142194872D01*
X190363974Y-133794820D02*
X189765077Y-133195923D01*
X192033025Y-142194872D02*
X192931051Y-141296846D01*
X190236974Y-142194872D02*
X190236974Y-133667820D01*
%TO.N,Net-(D20-Pad2)*%
X155702000Y-65786000D02*
X159338107Y-62149893D01*
X161999909Y-62149893D02*
X163314045Y-60835757D01*
X115316000Y-107696000D02*
X151638000Y-107696000D01*
X163314045Y-60835757D02*
X163314045Y-59632445D01*
X159338107Y-62149893D02*
X161999909Y-62149893D01*
X151638000Y-107696000D02*
X155702000Y-103632000D01*
X109728000Y-113284000D02*
X115316000Y-107696000D01*
X155702000Y-103632000D02*
X155702000Y-65786000D01*
%TO.N,Net-(D21-Pad2)*%
X156209520Y-103842221D02*
X156209520Y-84074000D01*
X161669909Y-81206893D02*
X162984045Y-79892757D01*
X115525742Y-108204000D02*
X116078000Y-108204000D01*
X151848221Y-108203520D02*
X156209520Y-103842221D01*
X116078000Y-108204000D02*
X116078480Y-108203520D01*
X159076627Y-81206893D02*
X161669909Y-81206893D01*
X162984045Y-79892757D02*
X162984045Y-78689445D01*
X156209520Y-84074000D02*
X159076627Y-81206893D01*
X113030000Y-110699742D02*
X115525742Y-108204000D01*
X113030000Y-116332000D02*
X113030000Y-110699742D01*
X116078480Y-108203520D02*
X151848221Y-108203520D01*
%TO.N,Net-(D22-Pad2)*%
X152058442Y-108711040D02*
X160505589Y-100263893D01*
X116332000Y-119380000D02*
X116332000Y-109982000D01*
X161339909Y-100263893D02*
X162654045Y-98949757D01*
X162654045Y-98949757D02*
X162654045Y-97746445D01*
X116332000Y-109982000D02*
X117602960Y-108711040D01*
X117602960Y-108711040D02*
X152058442Y-108711040D01*
X160505589Y-100263893D02*
X161339909Y-100263893D01*
D36*
%TO.N,GND*%
X185420000Y-120479200D02*
X185420000Y-111125000D01*
X182372000Y-97536000D02*
X193804000Y-86104000D01*
X183337200Y-122562000D02*
X185420000Y-120479200D01*
X185420000Y-111125000D02*
X190690500Y-105854500D01*
%TD*%
M02*
