%TF.GenerationSoftware,KiCad,Pcbnew,6.0.0-rc1-unknown-db41769bb9~144~ubuntu20.04.1*%
%TF.CreationDate,2021-12-01T14:16:25+01:00*%
%TF.ProjectId,khada,6b686164-612e-46b6-9963-61645f706362,rev?*%
%TF.SameCoordinates,Original*%
%TF.FileFunction,Copper,L1,Top*%
%TF.FilePolarity,Positive*%
%FSLAX46Y46*%
G04 Gerber Fmt 4.6, Leading zero omitted, Abs format (unit mm)*
G04 Created by KiCad (PCBNEW 6.0.0-rc1-unknown-db41769bb9~144~ubuntu20.04.1) date 2021-12-01 14:16:25*
%MOMM*%
%LPD*%
G01*
G04 APERTURE LIST*
G04 Aperture macros list*
%AMRoundRect*
0 Rectangle with rounded corners*
0 $1 Rounding radius*
0 $2 $3 $4 $5 $6 $7 $8 $9 X,Y pos of 4 corners*
0 Add a 4 corners polygon primitive as box body*
4,1,4,$2,$3,$4,$5,$6,$7,$8,$9,$2,$3,0*
0 Add four circle primitives for the rounded corners*
1,1,$1+$1,$2,$3*
1,1,$1+$1,$4,$5*
1,1,$1+$1,$6,$7*
1,1,$1+$1,$8,$9*
0 Add four rect primitives between the rounded corners*
20,1,$1+$1,$2,$3,$4,$5,0*
20,1,$1+$1,$4,$5,$6,$7,0*
20,1,$1+$1,$6,$7,$8,$9,0*
20,1,$1+$1,$8,$9,$2,$3,0*%
%AMHorizOval*
0 Thick line with rounded ends*
0 $1 width*
0 $2 $3 position (X,Y) of the first rounded end (center of the circle)*
0 $4 $5 position (X,Y) of the second rounded end (center of the circle)*
0 Add line between two ends*
20,1,$1,$2,$3,$4,$5,0*
0 Add two circle primitives to create the rounded ends*
1,1,$1,$2,$3*
1,1,$1,$4,$5*%
G04 Aperture macros list end*
%TA.AperFunction,ComponentPad*%
%ADD10C,2.300000*%
%TD*%
%TA.AperFunction,ComponentPad*%
%ADD11RoundRect,0.160000X0.693344X-0.581785X0.581785X0.693344X-0.693344X0.581785X-0.581785X-0.693344X0*%
%TD*%
%TA.AperFunction,ComponentPad*%
%ADD12HorizOval,1.600000X0.000000X0.000000X0.000000X0.000000X0*%
%TD*%
%TA.AperFunction,ComponentPad*%
%ADD13C,4.000000*%
%TD*%
%TA.AperFunction,ComponentPad*%
%ADD14RoundRect,0.160000X0.905097X0.000000X0.000000X0.905097X-0.905097X0.000000X0.000000X-0.905097X0*%
%TD*%
%TA.AperFunction,ComponentPad*%
%ADD15HorizOval,1.600000X0.000000X0.000000X0.000000X0.000000X0*%
%TD*%
%TA.AperFunction,ComponentPad*%
%ADD16RoundRect,0.160000X0.353649X-0.833146X0.833146X0.353649X-0.353649X0.833146X-0.833146X-0.353649X0*%
%TD*%
%TA.AperFunction,ComponentPad*%
%ADD17HorizOval,1.600000X0.000000X0.000000X0.000000X0.000000X0*%
%TD*%
%TA.AperFunction,ComponentPad*%
%ADD18RoundRect,0.160000X0.672618X-0.605628X0.605628X0.672618X-0.672618X0.605628X-0.605628X-0.672618X0*%
%TD*%
%TA.AperFunction,ComponentPad*%
%ADD19HorizOval,1.600000X0.000000X0.000000X0.000000X0.000000X0*%
%TD*%
%TA.AperFunction,ComponentPad*%
%ADD20RoundRect,0.160000X0.640000X-0.640000X0.640000X0.640000X-0.640000X0.640000X-0.640000X-0.640000X0*%
%TD*%
%TA.AperFunction,ComponentPad*%
%ADD21O,1.600000X1.600000*%
%TD*%
%TA.AperFunction,ComponentPad*%
%ADD22C,1.400000*%
%TD*%
%TA.AperFunction,ComponentPad*%
%ADD23O,1.400000X1.400000*%
%TD*%
%TA.AperFunction,ComponentPad*%
%ADD24RoundRect,0.160000X0.605628X-0.672618X0.672618X0.605628X-0.605628X0.672618X-0.672618X-0.605628X0*%
%TD*%
%TA.AperFunction,ComponentPad*%
%ADD25HorizOval,1.600000X0.000000X0.000000X0.000000X0.000000X0*%
%TD*%
%TA.AperFunction,ComponentPad*%
%ADD26R,1.700000X1.700000*%
%TD*%
%TA.AperFunction,ComponentPad*%
%ADD27C,1.700000*%
%TD*%
%TA.AperFunction,ComponentPad*%
%ADD28RoundRect,0.160000X0.000000X-0.905097X0.905097X0.000000X0.000000X0.905097X-0.905097X0.000000X0*%
%TD*%
%TA.AperFunction,ComponentPad*%
%ADD29HorizOval,1.600000X0.000000X0.000000X0.000000X0.000000X0*%
%TD*%
%TA.AperFunction,ComponentPad*%
%ADD30O,2.500000X1.700000*%
%TD*%
%TA.AperFunction,ComponentPad*%
%ADD31R,2.000000X2.000000*%
%TD*%
%TA.AperFunction,ComponentPad*%
%ADD32C,2.000000*%
%TD*%
%TA.AperFunction,ComponentPad*%
%ADD33R,2.000000X3.200000*%
%TD*%
%TA.AperFunction,ViaPad*%
%ADD34C,0.800000*%
%TD*%
%TA.AperFunction,Conductor*%
%ADD35C,0.254000*%
%TD*%
%TA.AperFunction,Conductor*%
%ADD36C,0.500000*%
%TD*%
G04 APERTURE END LIST*
D10*
%TO.P,SW6,1,1*%
%TO.N,Net-(D6-Pad2)*%
X83130523Y-106386729D03*
X84174314Y-103745707D03*
%TO.P,SW6,2,2*%
%TO.N,col1*%
X89234983Y-103302955D03*
X90721526Y-105722602D03*
%TD*%
%TO.P,SW8,1,1*%
%TO.N,Net-(D8-Pad2)*%
X100361288Y-60035881D03*
X101496614Y-57432895D03*
%TO.P,SW8,2,2*%
%TO.N,col2*%
X107970845Y-59637081D03*
X106569652Y-57167029D03*
%TD*%
D11*
%TO.P,D12,1,K*%
%TO.N,row0*%
X90756063Y-125664702D03*
D12*
%TO.P,D12,2,A*%
%TO.N,Net-(D12-Pad2)*%
X90091937Y-118073698D03*
%TD*%
D11*
%TO.P,D4,1,K*%
%TO.N,row0*%
X70944063Y-127391902D03*
D12*
%TO.P,D4,2,A*%
%TO.N,Net-(D4-Pad2)*%
X70279937Y-119800898D03*
%TD*%
D11*
%TO.P,D14,1,K*%
%TO.N,row2*%
X97334663Y-131506702D03*
D12*
%TO.P,D14,2,A*%
%TO.N,Net-(D14-Pad2)*%
X96670537Y-123915698D03*
%TD*%
D11*
%TO.P,D6,1,K*%
%TO.N,row2*%
X77548063Y-133233902D03*
D12*
%TO.P,D6,2,A*%
%TO.N,Net-(D6-Pad2)*%
X76883937Y-125642898D03*
%TD*%
D13*
%TO.P,H3,*%
%TO.N,*%
X78105000Y-114554000D03*
%TD*%
D10*
%TO.P,SW1,1,1*%
%TO.N,Net-(D1-Pad2)*%
X60813123Y-70064729D03*
X61856914Y-67423707D03*
%TO.P,SW1,2,2*%
%TO.N,col0*%
X66917583Y-66980955D03*
X68404126Y-69400602D03*
%TD*%
D13*
%TO.P,H5,*%
%TO.N,*%
X180467000Y-141478000D03*
%TD*%
%TO.P,H2,*%
%TO.N,*%
X156464000Y-56388000D03*
%TD*%
D14*
%TO.P,D23,1,K*%
%TO.N,row3*%
X198020077Y-128627277D03*
D15*
%TO.P,D23,2,A*%
%TO.N,Net-(D23-Pad2)*%
X192631923Y-123239123D03*
%TD*%
D11*
%TO.P,D8,1,K*%
%TO.N,row0*%
X80342063Y-126579102D03*
D12*
%TO.P,D8,2,A*%
%TO.N,Net-(D8-Pad2)*%
X79677937Y-118988098D03*
%TD*%
D16*
%TO.P,D15,1,K*%
%TO.N,row3*%
X181833749Y-137136570D03*
D17*
%TO.P,D15,2,A*%
%TO.N,Net-(D15-Pad2)*%
X184688251Y-130071430D03*
%TD*%
D10*
%TO.P,SW14,1,1*%
%TO.N,Net-(D14-Pad2)*%
X123698000Y-93472000D03*
X122428000Y-96012000D03*
%TO.P,SW14,2,2*%
%TO.N,col3*%
X130048000Y-96012000D03*
X128778000Y-93472000D03*
%TD*%
D18*
%TO.P,D20,1,K*%
%TO.N,row0*%
X110126800Y-120873379D03*
D19*
%TO.P,D20,2,A*%
%TO.N,Net-(D20-Pad2)*%
X109728000Y-113263821D03*
%TD*%
D11*
%TO.P,D13,1,K*%
%TO.N,row1*%
X94058063Y-128458702D03*
D12*
%TO.P,D13,2,A*%
%TO.N,Net-(D13-Pad2)*%
X93393937Y-120867698D03*
%TD*%
D10*
%TO.P,SW15,1,1*%
%TO.N,Net-(D15-Pad2)*%
X171477832Y-128162301D03*
X169316334Y-130004155D03*
%TO.P,SW15,2,2*%
%TO.N,col3*%
X176153996Y-130147215D03*
X176330581Y-132981526D03*
%TD*%
D18*
%TO.P,D22,1,K*%
%TO.N,row2*%
X116719400Y-126714779D03*
D19*
%TO.P,D22,2,A*%
%TO.N,Net-(D22-Pad2)*%
X116320600Y-119105221D03*
%TD*%
D10*
%TO.P,SW9,1,1*%
%TO.N,Net-(D9-Pad2)*%
X102496614Y-76474895D03*
X101361288Y-79077881D03*
%TO.P,SW9,2,2*%
%TO.N,col2*%
X107569652Y-76209029D03*
X108970845Y-78679081D03*
%TD*%
D20*
%TO.P,D7,1,K*%
%TO.N,row3*%
X138557000Y-127254000D03*
D21*
%TO.P,D7,2,A*%
%TO.N,Net-(D7-Pad2)*%
X138557000Y-119634000D03*
%TD*%
D10*
%TO.P,SW18,1,1*%
%TO.N,Net-(D18-Pad2)*%
X142284909Y-99120893D03*
X143599045Y-96603445D03*
%TO.P,SW18,2,2*%
%TO.N,col4*%
X148678271Y-96692103D03*
X149903749Y-99253881D03*
%TD*%
%TO.P,SW5,1,1*%
%TO.N,Net-(D5-Pad2)*%
X82514314Y-84753707D03*
X81470523Y-87394729D03*
%TO.P,SW5,2,2*%
%TO.N,col1*%
X87574983Y-84310955D03*
X89061526Y-86730602D03*
%TD*%
%TO.P,SW11,1,1*%
%TO.N,Net-(D11-Pad2)*%
X146061155Y-126042081D03*
X147462348Y-123572029D03*
%TO.P,SW11,2,2*%
%TO.N,col2*%
X153670712Y-126440881D03*
X152535386Y-123837895D03*
%TD*%
%TO.P,SW22,1,1*%
%TO.N,Net-(D22-Pad2)*%
X161339909Y-100263893D03*
X162654045Y-97746445D03*
%TO.P,SW22,2,2*%
%TO.N,col5*%
X168958749Y-100396881D03*
X167733271Y-97835103D03*
%TD*%
D11*
%TO.P,D2,1,K*%
%TO.N,row1*%
X64340063Y-131049502D03*
D12*
%TO.P,D2,2,A*%
%TO.N,Net-(D2-Pad2)*%
X63675937Y-123458498D03*
%TD*%
D10*
%TO.P,SW12,1,1*%
%TO.N,Net-(D12-Pad2)*%
X122428000Y-57912000D03*
X123698000Y-55372000D03*
%TO.P,SW12,2,2*%
%TO.N,col3*%
X130048000Y-57912000D03*
X128778000Y-55372000D03*
%TD*%
D22*
%TO.P,R1,1*%
%TO.N,+5V*%
X195834000Y-105537000D03*
D23*
%TO.P,R1,2*%
%TO.N,DATA*%
X200914000Y-105537000D03*
%TD*%
D10*
%TO.P,SW13,1,1*%
%TO.N,Net-(D13-Pad2)*%
X123698000Y-74422000D03*
X122428000Y-76962000D03*
%TO.P,SW13,2,2*%
%TO.N,col3*%
X128778000Y-74422000D03*
X130048000Y-76962000D03*
%TD*%
%TO.P,SW20,1,1*%
%TO.N,Net-(D20-Pad2)*%
X163314045Y-59632445D03*
X161999909Y-62149893D03*
%TO.P,SW20,2,2*%
%TO.N,col5*%
X168393271Y-59721103D03*
X169618749Y-62282881D03*
%TD*%
D11*
%TO.P,D9,1,K*%
%TO.N,row1*%
X83644063Y-129373102D03*
D12*
%TO.P,D9,2,A*%
%TO.N,Net-(D9-Pad2)*%
X82979937Y-121782098D03*
%TD*%
D10*
%TO.P,SW10,1,1*%
%TO.N,Net-(D10-Pad2)*%
X102362000Y-98119881D03*
X103497326Y-95516895D03*
%TO.P,SW10,2,2*%
%TO.N,col2*%
X109971557Y-97721081D03*
X108570364Y-95251029D03*
%TD*%
D24*
%TO.P,D11,1,K*%
%TO.N,row3*%
X160455600Y-128491702D03*
D25*
%TO.P,D11,2,A*%
%TO.N,Net-(D11-Pad2)*%
X160854400Y-120882144D03*
%TD*%
D11*
%TO.P,D5,1,K*%
%TO.N,row1*%
X74246063Y-130185902D03*
D12*
%TO.P,D5,2,A*%
%TO.N,Net-(D5-Pad2)*%
X73581937Y-122594898D03*
%TD*%
D11*
%TO.P,D1,1,K*%
%TO.N,row0*%
X61038063Y-128255502D03*
D12*
%TO.P,D1,2,A*%
%TO.N,Net-(D1-Pad2)*%
X60373937Y-120664498D03*
%TD*%
D10*
%TO.P,SW2,1,1*%
%TO.N,Net-(D2-Pad2)*%
X62473123Y-89056729D03*
X63516914Y-86415707D03*
%TO.P,SW2,2,2*%
%TO.N,col0*%
X70064126Y-88392602D03*
X68577583Y-85972955D03*
%TD*%
D18*
%TO.P,D17,1,K*%
%TO.N,row1*%
X103268800Y-124200779D03*
D19*
%TO.P,D17,2,A*%
%TO.N,Net-(D17-Pad2)*%
X102870000Y-116591221D03*
%TD*%
D13*
%TO.P,H4,*%
%TO.N,*%
X168910000Y-117983000D03*
%TD*%
D11*
%TO.P,D3,1,K*%
%TO.N,row2*%
X67642063Y-134097502D03*
D12*
%TO.P,D3,2,A*%
%TO.N,Net-(D3-Pad2)*%
X66977937Y-126506498D03*
%TD*%
D18*
%TO.P,D16,1,K*%
%TO.N,row0*%
X100021400Y-121401558D03*
D19*
%TO.P,D16,2,A*%
%TO.N,Net-(D16-Pad2)*%
X99622600Y-113792000D03*
%TD*%
D26*
%TO.P,U1,1,PB12*%
%TO.N,unconnected-(U1-Pad1)*%
X182372000Y-51816000D03*
D27*
%TO.P,U1,2,PB13*%
%TO.N,unconnected-(U1-Pad2)*%
X182372000Y-54356000D03*
%TO.P,U1,3,PB14*%
%TO.N,unconnected-(U1-Pad3)*%
X182372000Y-56896000D03*
%TO.P,U1,4,PB15*%
%TO.N,unconnected-(U1-Pad4)*%
X182372000Y-59436000D03*
%TO.P,U1,5,PA8*%
%TO.N,unconnected-(U1-Pad5)*%
X182372000Y-61976000D03*
%TO.P,U1,6,PA9*%
%TO.N,unconnected-(U1-Pad6)*%
X182372000Y-64516000D03*
%TO.P,U1,7,PA10*%
%TO.N,unconnected-(U1-Pad7)*%
X182372000Y-67056000D03*
%TO.P,U1,8,PA11*%
%TO.N,unconnected-(U1-Pad8)*%
X182372000Y-69596000D03*
%TO.P,U1,9,PA12*%
%TO.N,unconnected-(U1-Pad9)*%
X182372000Y-72136000D03*
%TO.P,U1,10,PA15*%
%TO.N,col0*%
X182372000Y-74676000D03*
%TO.P,U1,11,PB3*%
%TO.N,col1*%
X182372000Y-77216000D03*
%TO.P,U1,12,PB4*%
%TO.N,col2*%
X182372000Y-79756000D03*
%TO.P,U1,13,PB5*%
%TO.N,col3*%
X182372000Y-82296000D03*
%TO.P,U1,14,PB6*%
%TO.N,col4*%
X182372000Y-84836000D03*
%TO.P,U1,15,PB7*%
%TO.N,col5*%
X182372000Y-87376000D03*
%TO.P,U1,16,PB8*%
%TO.N,ROTA*%
X182372000Y-89916000D03*
%TO.P,U1,17,PB9*%
%TO.N,ROTB*%
X182372000Y-92456000D03*
%TO.P,U1,18,5V*%
%TO.N,+5V*%
X182372000Y-94996000D03*
%TO.P,U1,19,GND*%
%TO.N,GND*%
X182372000Y-97536000D03*
%TO.P,U1,20,3V3*%
%TO.N,unconnected-(U1-Pad20)*%
X182372000Y-100076000D03*
%TO.P,U1,21,VBat*%
%TO.N,unconnected-(U1-Pad21)*%
X197612000Y-100076000D03*
%TO.P,U1,22,PC13*%
%TO.N,unconnected-(U1-Pad22)*%
X197612000Y-97536000D03*
%TO.P,U1,23,PC14*%
%TO.N,unconnected-(U1-Pad23)*%
X197612000Y-94996000D03*
%TO.P,U1,24,PC15*%
%TO.N,unconnected-(U1-Pad24)*%
X197612000Y-92456000D03*
%TO.P,U1,25,RES*%
%TO.N,unconnected-(U1-Pad25)*%
X197612000Y-89916000D03*
%TO.P,U1,26,PA0*%
%TO.N,unconnected-(U1-Pad26)*%
X197612000Y-87376000D03*
%TO.P,U1,27,PA1*%
%TO.N,unconnected-(U1-Pad27)*%
X197612000Y-84836000D03*
%TO.P,U1,28,PA2*%
%TO.N,DATA*%
X197612000Y-82296000D03*
%TO.P,U1,29,PA3*%
%TO.N,row0*%
X197612000Y-79756000D03*
%TO.P,U1,30,PA4*%
%TO.N,row1*%
X197612000Y-77216000D03*
%TO.P,U1,31,PA5*%
%TO.N,row2*%
X197612000Y-74676000D03*
%TO.P,U1,32,PA6*%
%TO.N,row3*%
X197612000Y-72136000D03*
%TO.P,U1,33,PA7*%
%TO.N,unconnected-(U1-Pad33)*%
X197612000Y-69596000D03*
%TO.P,U1,34,PB0*%
%TO.N,unconnected-(U1-Pad34)*%
X197612000Y-67056000D03*
%TO.P,U1,35,PB1*%
%TO.N,unconnected-(U1-Pad35)*%
X197612000Y-64516000D03*
%TO.P,U1,36,PB2*%
%TO.N,unconnected-(U1-Pad36)*%
X197612000Y-61976000D03*
%TO.P,U1,37,PB10*%
%TO.N,unconnected-(U1-Pad37)*%
X197612000Y-59436000D03*
%TO.P,U1,38,3V3*%
%TO.N,unconnected-(U1-Pad38)*%
X197612000Y-56896000D03*
%TO.P,U1,39,GND*%
%TO.N,GND*%
X197612000Y-54356000D03*
%TO.P,U1,40,5V*%
%TO.N,unconnected-(U1-Pad40)*%
X197612000Y-51816000D03*
%TO.P,U1,41,GND*%
%TO.N,GND*%
X193804000Y-96265000D03*
%TO.P,U1,42,SWCLK*%
%TO.N,unconnected-(U1-Pad42)*%
X191264000Y-96265000D03*
%TO.P,U1,43,SWIO*%
%TO.N,unconnected-(U1-Pad43)*%
X188724000Y-96265000D03*
%TO.P,U1,44,3V3*%
%TO.N,unconnected-(U1-Pad44)*%
X186184000Y-96265000D03*
%TD*%
D10*
%TO.P,SW7,1,1*%
%TO.N,Net-(D7-Pad2)*%
X125349000Y-123063000D03*
X124079000Y-125603000D03*
%TO.P,SW7,2,2*%
%TO.N,col1*%
X131699000Y-125603000D03*
X130429000Y-123063000D03*
%TD*%
%TO.P,SW19,1,1*%
%TO.N,Net-(D19-Pad2)*%
X190236974Y-142194872D03*
X192931051Y-141296846D03*
%TO.P,SW19,2,2*%
%TO.N,col4*%
X195625128Y-147583026D03*
X196523154Y-144888949D03*
%TD*%
%TO.P,SW17,1,1*%
%TO.N,Net-(D17-Pad2)*%
X142615109Y-80063893D03*
X143929245Y-77546445D03*
%TO.P,SW17,2,2*%
%TO.N,col4*%
X150233949Y-80196881D03*
X149008471Y-77635103D03*
%TD*%
D11*
%TO.P,D10,1,K*%
%TO.N,row2*%
X86946063Y-132421102D03*
D12*
%TO.P,D10,2,A*%
%TO.N,Net-(D10-Pad2)*%
X86281937Y-124830098D03*
%TD*%
D13*
%TO.P,H1,*%
%TO.N,*%
X73406000Y-60198000D03*
%TD*%
D10*
%TO.P,SW21,1,1*%
%TO.N,Net-(D21-Pad2)*%
X162984045Y-78689445D03*
X161669909Y-81206893D03*
%TO.P,SW21,2,2*%
%TO.N,col5*%
X169288749Y-81339881D03*
X168063271Y-78778103D03*
%TD*%
%TO.P,SW16,1,1*%
%TO.N,Net-(D16-Pad2)*%
X142945109Y-61006893D03*
X144259245Y-58489445D03*
%TO.P,SW16,2,2*%
%TO.N,col4*%
X150563949Y-61139881D03*
X149338471Y-58578103D03*
%TD*%
D28*
%TO.P,D19,1,K*%
%TO.N,row3*%
X184503923Y-138711077D03*
D29*
%TO.P,D19,2,A*%
%TO.N,Net-(D19-Pad2)*%
X189892077Y-133322923D03*
%TD*%
D10*
%TO.P,SW4,1,1*%
%TO.N,Net-(D4-Pad2)*%
X79810523Y-68402729D03*
X80854314Y-65761707D03*
%TO.P,SW4,2,2*%
%TO.N,col1*%
X85914983Y-65318955D03*
X87401526Y-67738602D03*
%TD*%
D18*
%TO.P,D21,1,K*%
%TO.N,row1*%
X113419400Y-123674779D03*
D19*
%TO.P,D21,2,A*%
%TO.N,Net-(D21-Pad2)*%
X113020600Y-116065221D03*
%TD*%
D10*
%TO.P,SW3,1,1*%
%TO.N,Net-(D3-Pad2)*%
X64133123Y-108048729D03*
X65176914Y-105407707D03*
%TO.P,SW3,2,2*%
%TO.N,col0*%
X71724126Y-107384602D03*
X70237583Y-104964955D03*
%TD*%
D30*
%TO.P,J1,A*%
%TO.N,unconnected-(J1-PadA)*%
X193051000Y-113253000D03*
X193051000Y-110803000D03*
%TO.P,J1,B*%
%TO.N,DATA*%
X201551000Y-109053000D03*
X201551000Y-115003000D03*
%TO.P,J1,C*%
%TO.N,+5V*%
X198551000Y-109053000D03*
X198551000Y-115003000D03*
%TO.P,J1,D*%
%TO.N,GND*%
X194551000Y-115003000D03*
X194551000Y-109053000D03*
%TD*%
D18*
%TO.P,D18,1,K*%
%TO.N,row2*%
X106570800Y-127248779D03*
D19*
%TO.P,D18,2,A*%
%TO.N,Net-(D18-Pad2)*%
X106172000Y-119639221D03*
%TD*%
D31*
%TO.P,SW23,A,A*%
%TO.N,ROTA*%
X180837200Y-122562000D03*
D32*
%TO.P,SW23,B,B*%
%TO.N,ROTB*%
X185837200Y-122562000D03*
%TO.P,SW23,C,C*%
%TO.N,GND*%
X183337200Y-122562000D03*
D33*
%TO.P,SW23,MP*%
%TO.N,N/C*%
X177737200Y-115062000D03*
X188937200Y-115062000D03*
D32*
%TO.P,SW23,S1,S1*%
%TO.N,Net-(D23-Pad2)*%
X185837200Y-108062000D03*
%TO.P,SW23,S2,S2*%
%TO.N,col5*%
X180837200Y-108062000D03*
%TD*%
D34*
%TO.N,GND*%
X190690500Y-105854500D03*
X193804000Y-86104000D03*
%TD*%
D35*
%TO.N,row0*%
X100021400Y-123998600D02*
X100021400Y-121401558D01*
X100021400Y-121401558D02*
X110126800Y-120893558D01*
X80342063Y-126579102D02*
X90756063Y-125664702D01*
X99090000Y-124930000D02*
X100021400Y-123998600D01*
X61038063Y-128255502D02*
X70944063Y-127391902D01*
X90756063Y-125664702D02*
X99090000Y-124930000D01*
X70944063Y-127391902D02*
X80342063Y-126579102D01*
%TO.N,row1*%
X64340063Y-131049502D02*
X74246063Y-130185902D01*
X74246063Y-130185902D02*
X83644063Y-129373102D01*
X83644063Y-129373102D02*
X94058063Y-128458702D01*
X94058063Y-128458702D02*
X101830000Y-127770000D01*
X101830000Y-127770000D02*
X103268800Y-126331200D01*
X103268800Y-124200779D02*
X113419400Y-123674779D01*
X103268800Y-126331200D02*
X103268800Y-124200779D01*
%TO.N,row2*%
X77548063Y-133233902D02*
X86946063Y-132421102D01*
X106570800Y-127248779D02*
X116719400Y-126714779D01*
X104650000Y-130870000D02*
X106570800Y-129395200D01*
X106570800Y-129395200D02*
X106570800Y-127248779D01*
X86946063Y-132421102D02*
X97334663Y-131506702D01*
X67642063Y-134097502D02*
X77548063Y-133233902D01*
X97334663Y-131506702D02*
X104650000Y-130870000D01*
%TO.N,row3*%
X181556319Y-137414000D02*
X181833749Y-137136570D01*
X160455600Y-128491702D02*
X160495702Y-128491702D01*
X138557000Y-127254000D02*
X144145000Y-132842000D01*
X183408256Y-138711077D02*
X184503923Y-138711077D01*
X160495702Y-128491702D02*
X169418000Y-137414000D01*
X144145000Y-132842000D02*
X156105302Y-132842000D01*
X181833749Y-137136570D02*
X183408256Y-138711077D01*
X156105302Y-132842000D02*
X160455600Y-128491702D01*
X169418000Y-137414000D02*
X181556319Y-137414000D01*
%TO.N,col0*%
X68314583Y-56896000D02*
X130434775Y-51562000D01*
X70237583Y-104964955D02*
X70237583Y-88566059D01*
X66917583Y-67914059D02*
X66917583Y-66980955D01*
X178816000Y-71120000D02*
X182372000Y-74676000D01*
X130434775Y-51562000D02*
X175006000Y-51562000D01*
X70237583Y-88566059D02*
X70064126Y-88392602D01*
X68577583Y-85972955D02*
X68577583Y-69574059D01*
X68577583Y-86906059D02*
X68577583Y-85972955D01*
X70064126Y-88392602D02*
X68577583Y-86906059D01*
X66917583Y-58293000D02*
X68314583Y-56896000D01*
X68404126Y-69400602D02*
X66917583Y-67914059D01*
X71724126Y-107384602D02*
X70237583Y-105898059D01*
X70237583Y-105898059D02*
X70237583Y-104964955D01*
X175006000Y-51562000D02*
X178816000Y-55372000D01*
X178816000Y-55372000D02*
X178816000Y-71120000D01*
X68577583Y-69574059D02*
X68404126Y-69400602D01*
X66917583Y-66980955D02*
X66917583Y-58293000D01*
%TO.N,col1*%
X113088602Y-105722602D02*
X130429000Y-123063000D01*
X89234983Y-103302955D02*
X89234983Y-86904059D01*
X85882183Y-65177555D02*
X85882183Y-57500817D01*
X87574983Y-85244059D02*
X87574983Y-84310955D01*
X89234983Y-86904059D02*
X89061526Y-86730602D01*
X130429000Y-124333000D02*
X130429000Y-123063000D01*
X174795777Y-52069520D02*
X130644998Y-52069520D01*
X89234983Y-104236059D02*
X89234983Y-103302955D01*
X89061526Y-86730602D02*
X87574983Y-85244059D01*
X178308480Y-55582222D02*
X174795777Y-52069520D01*
X87401526Y-67738602D02*
X85914983Y-66252059D01*
X90721526Y-105722602D02*
X113088602Y-105722602D01*
X131699000Y-125603000D02*
X130429000Y-124333000D01*
X87574983Y-84310955D02*
X87574983Y-67912059D01*
X87574983Y-67912059D02*
X87401526Y-67738602D01*
X90721526Y-105722602D02*
X89234983Y-104236059D01*
X178308480Y-73152480D02*
X178308480Y-55582222D01*
X87630000Y-55753000D02*
X130644998Y-52069520D01*
X182372000Y-77216000D02*
X178308480Y-73152480D01*
X85882183Y-57500817D02*
X87630000Y-55753000D01*
X85914983Y-66252059D02*
X85914983Y-65318955D01*
%TO.N,col2*%
X107970845Y-59637081D02*
X106569652Y-58235888D01*
X108570364Y-96319888D02*
X108570364Y-95251029D01*
X153670712Y-126440881D02*
X153670712Y-124973221D01*
X109971557Y-97721081D02*
X108570364Y-96319888D01*
X106569652Y-56940348D02*
X109080000Y-54430000D01*
X108570364Y-79079562D02*
X108970845Y-78679081D01*
X177800960Y-75184960D02*
X177800960Y-55792444D01*
X174585556Y-52577040D02*
X130683960Y-52577040D01*
X153670712Y-124973221D02*
X152535386Y-123837895D01*
X106569652Y-58235888D02*
X106569652Y-57167029D01*
X108970845Y-78679081D02*
X107569652Y-77277888D01*
X106569652Y-57167029D02*
X106569652Y-56940348D01*
X116517081Y-97721081D02*
X109971557Y-97721081D01*
X109080000Y-54430000D02*
X130683960Y-52577040D01*
X107569652Y-77277888D02*
X107569652Y-76209029D01*
X130022600Y-111226600D02*
X116517081Y-97721081D01*
X108570364Y-95251029D02*
X108570364Y-79079562D01*
X182372000Y-79756000D02*
X177800960Y-75184960D01*
X152535386Y-123837895D02*
X139924091Y-111226600D01*
X139924091Y-111226600D02*
X130022600Y-111226600D01*
X177800960Y-55792444D02*
X174585556Y-52577040D01*
X107569652Y-76209029D02*
X107569652Y-60038274D01*
X107569652Y-60038274D02*
X107970845Y-59637081D01*
%TO.N,col3*%
X174375334Y-53084560D02*
X177293440Y-56002666D01*
X145796000Y-111252000D02*
X130556000Y-96012000D01*
X128778000Y-74422000D02*
X128778000Y-59182000D01*
X131065440Y-53084560D02*
X174375334Y-53084560D01*
X128778000Y-78232000D02*
X130048000Y-76962000D01*
X128778000Y-56642000D02*
X128778000Y-55372000D01*
X176153996Y-130147215D02*
X157258781Y-111252000D01*
X130048000Y-57912000D02*
X128778000Y-56642000D01*
X130048000Y-96012000D02*
X128778000Y-94742000D01*
X128778000Y-94742000D02*
X128778000Y-93472000D01*
X157258781Y-111252000D02*
X145796000Y-111252000D01*
X128778000Y-59182000D02*
X130048000Y-57912000D01*
X128778000Y-55372000D02*
X131065440Y-53084560D01*
X128778000Y-75692000D02*
X128778000Y-74422000D01*
X130556000Y-96012000D02*
X130048000Y-96012000D01*
X128778000Y-93472000D02*
X128778000Y-78232000D01*
X176330581Y-132981526D02*
X176330581Y-130323800D01*
X176330581Y-130323800D02*
X176153996Y-130147215D01*
X177293440Y-77217440D02*
X182372000Y-82296000D01*
X177293440Y-56002666D02*
X177293440Y-77217440D01*
X130048000Y-76962000D02*
X128778000Y-75692000D01*
%TO.N,col4*%
X149903749Y-99253881D02*
X153547433Y-99253881D01*
X189230000Y-124714000D02*
X196523154Y-132007154D01*
X176785920Y-56212888D02*
X176785920Y-79249920D01*
X150563949Y-61139881D02*
X149338471Y-59914403D01*
X148678271Y-98028403D02*
X148678271Y-96692103D01*
X149338471Y-58578103D02*
X149338471Y-55131529D01*
X195625128Y-147583026D02*
X195625128Y-145786975D01*
X196523154Y-132007154D02*
X196523154Y-144888949D01*
X149008471Y-78971403D02*
X149008471Y-77635103D01*
X175971200Y-124714000D02*
X189230000Y-124714000D01*
X153547433Y-99253881D02*
X165570952Y-111277400D01*
X173532800Y-122275600D02*
X175971200Y-124714000D01*
X148678271Y-96692103D02*
X149821271Y-95549103D01*
X165570952Y-111277400D02*
X170561000Y-111277400D01*
X150877920Y-53592080D02*
X174165112Y-53592080D01*
X195625128Y-145786975D02*
X196523154Y-144888949D01*
X149903749Y-99253881D02*
X148678271Y-98028403D01*
X150114000Y-76529574D02*
X150114000Y-61589830D01*
X173532800Y-114249200D02*
X173532800Y-122275600D01*
X176785920Y-79249920D02*
X182372000Y-84836000D01*
X150233949Y-80196881D02*
X149008471Y-78971403D01*
X149821271Y-95549103D02*
X149821271Y-80609559D01*
X170561000Y-111277400D02*
X173532800Y-114249200D01*
X149338471Y-59914403D02*
X149338471Y-58578103D01*
X149821271Y-80609559D02*
X150233949Y-80196881D01*
X150114000Y-61589830D02*
X150563949Y-61139881D01*
X149338471Y-55131529D02*
X150877920Y-53592080D01*
X149008471Y-77635103D02*
X150114000Y-76529574D01*
X174165112Y-53592080D02*
X176785920Y-56212888D01*
%TO.N,col5*%
X173954890Y-54099600D02*
X176278400Y-56423110D01*
X167733271Y-97835103D02*
X168876271Y-96692103D01*
X168393271Y-59721103D02*
X168393271Y-55126729D01*
X169420400Y-54099600D02*
X173954890Y-54099600D01*
X169618749Y-62282881D02*
X168393271Y-61057403D01*
X176278400Y-81282400D02*
X182372000Y-87376000D01*
X167779071Y-98343103D02*
X168083871Y-98038303D01*
X168393271Y-55126729D02*
X169420400Y-54099600D01*
X168876271Y-96692103D02*
X168876271Y-81752359D01*
X173172081Y-100396881D02*
X168958749Y-100396881D01*
X167733271Y-99171403D02*
X167733271Y-97835103D01*
X168083871Y-79293103D02*
X168388671Y-78988303D01*
X169288749Y-81339881D02*
X168063271Y-80114403D01*
X180837200Y-108062000D02*
X173172081Y-100396881D01*
X168063271Y-80114403D02*
X168063271Y-78778103D01*
X169618749Y-64260190D02*
X169618749Y-62282881D01*
X168063271Y-65815668D02*
X169618749Y-64260190D01*
X168393271Y-61057403D02*
X168393271Y-59721103D01*
X176278400Y-56423110D02*
X176278400Y-81282400D01*
X168063271Y-78778103D02*
X168063271Y-65815668D01*
X168958749Y-100396881D02*
X167733271Y-99171403D01*
X168876271Y-81752359D02*
X169288749Y-81339881D01*
D36*
%TO.N,GND*%
X193804000Y-58168000D02*
X193804000Y-86104000D01*
X194804520Y-114749480D02*
X194804520Y-109306520D01*
X193802000Y-58166000D02*
X193804000Y-58168000D01*
X193804000Y-86104000D02*
X193804000Y-96265000D01*
X193889000Y-109053000D02*
X194551000Y-109053000D01*
X190690500Y-105854500D02*
X193889000Y-109053000D01*
X182372000Y-97536000D02*
X190690500Y-105854500D01*
X197612000Y-54356000D02*
X193802000Y-58166000D01*
D35*
%TO.N,DATA*%
X199517000Y-105537000D02*
X195580000Y-101600000D01*
X195580000Y-84328000D02*
X197612000Y-82296000D01*
X200914000Y-108416000D02*
X201551000Y-109053000D01*
X200914000Y-105537000D02*
X199517000Y-105537000D01*
D36*
X201551000Y-115003000D02*
X201551000Y-109053000D01*
D35*
X200914000Y-105537000D02*
X200914000Y-108416000D01*
X195580000Y-101600000D02*
X195580000Y-84328000D01*
D36*
%TO.N,+5V*%
X192913000Y-105537000D02*
X182372000Y-94996000D01*
X195834000Y-105537000D02*
X192913000Y-105537000D01*
X198551000Y-109053000D02*
X198551000Y-108254000D01*
X198551000Y-115003000D02*
X198551000Y-109053000D01*
X198551000Y-108254000D02*
X195834000Y-105537000D01*
D35*
%TO.N,Net-(D23-Pad2)*%
X184454320Y-120039920D02*
X184454320Y-109444880D01*
X185318400Y-120904000D02*
X184454320Y-120039920D01*
X184454320Y-109444880D02*
X185837200Y-108062000D01*
X186334400Y-120904000D02*
X185318400Y-120904000D01*
X192631923Y-123239123D02*
X188669523Y-123239123D01*
X188669523Y-123239123D02*
X186334400Y-120904000D01*
%TO.N,ROTA*%
X182880000Y-120519200D02*
X180837200Y-122562000D01*
X178562000Y-93726000D02*
X182372000Y-89916000D01*
X182880000Y-104749600D02*
X178562000Y-100431600D01*
X178562000Y-100431600D02*
X178562000Y-93726000D01*
X182880000Y-104749600D02*
X182880000Y-120519200D01*
%TO.N,ROTB*%
X182372000Y-92456000D02*
X179069520Y-95758480D01*
X179069520Y-95758480D02*
X179069520Y-99821520D01*
X183667400Y-104419400D02*
X183667400Y-120392200D01*
X183667400Y-120392200D02*
X185837200Y-122562000D01*
X179069520Y-99821520D02*
X183667400Y-104419400D01*
D36*
%TO.N,unconnected-(J1-PadA)*%
X193051000Y-113253000D02*
X193051000Y-110803000D01*
%TD*%
M02*
