M48
; DRILL file {KiCad 6.0.0-rc1-unknown-db41769bb9~144~ubuntu20.04.1} date Mi 01 Dez 2021 14:16:22 CET
; FORMAT={-:-/ absolute / inch / decimal}
; #@! TF.CreationDate,2021-12-01T14:16:22+01:00
; #@! TF.GenerationSoftware,Kicad,Pcbnew,6.0.0-rc1-unknown-db41769bb9~144~ubuntu20.04.1
; #@! TF.FileFunction,Plated,1,2,PTH
FMAT,2
INCH
; #@! TA.AperFunction,Plated,PTH,ViaDrill
T1C0.0157
; #@! TA.AperFunction,Plated,PTH,ComponentDrill
T2C0.0276
; #@! TA.AperFunction,Plated,PTH,ComponentDrill
T3C0.0315
; #@! TA.AperFunction,Plated,PTH,ComponentDrill
T4C0.0394
; #@! TA.AperFunction,Plated,PTH,ComponentDrill
T5C0.0591
; #@! TA.AperFunction,Plated,PTH,ComponentDrill
T6C0.0600
; #@! TA.AperFunction,Plated,PTH,ComponentDrill
T7C0.0866
%
G90
G05
T1
X7.5075Y-4.1675
X7.6301Y-3.3899
T2
X7.71Y-4.155
X7.91Y-4.155
T3
X2.3769Y-4.7506
X2.4031Y-5.0494
X2.5069Y-4.8606
X2.5331Y-5.1594
X2.6369Y-4.9806
X2.6631Y-5.2794
X2.7669Y-4.7166
X2.7931Y-5.0154
X2.8969Y-4.8266
X2.9231Y-5.1254
X3.0269Y-4.9466
X3.0531Y-5.2454
X3.1369Y-4.6846
X3.1631Y-4.9834
X3.2669Y-4.7946
X3.2931Y-5.0934
X3.3969Y-4.9146
X3.4231Y-5.2134
X3.5469Y-4.6486
X3.5731Y-4.9474
X3.6769Y-4.7586
X3.7031Y-5.0574
X3.8059Y-4.8786
X3.8321Y-5.1774
X3.9221Y-4.48
X3.9379Y-4.7796
X4.05Y-4.5902
X4.0657Y-4.8898
X4.18Y-4.7102
X4.1957Y-5.0098
X4.32Y-4.4592
X4.3357Y-4.7588
X4.4496Y-4.5695
X4.4653Y-4.8691
X4.5796Y-4.6892
X4.5953Y-4.9888
X5.455Y-4.71
X5.455Y-5.01
X6.3171Y-5.0587
X6.3329Y-4.7591
X7.1588Y-5.3991
X7.2639Y-5.4611
X7.2712Y-5.1209
X7.4761Y-5.2489
X7.5839Y-4.8519
X7.7961Y-5.0641
T4
X7.1196Y-4.2544
X7.1196Y-4.8253
X7.18Y-2.04
X7.18Y-2.14
X7.18Y-2.24
X7.18Y-2.34
X7.18Y-2.44
X7.18Y-2.54
X7.18Y-2.64
X7.18Y-2.74
X7.18Y-2.84
X7.18Y-2.94
X7.18Y-3.04
X7.18Y-3.14
X7.18Y-3.24
X7.18Y-3.34
X7.18Y-3.44
X7.18Y-3.54
X7.18Y-3.64
X7.18Y-3.74
X7.18Y-3.84
X7.18Y-3.94
X7.218Y-4.8253
X7.3164Y-4.2544
X7.3164Y-4.8253
X7.3301Y-3.79
X7.4301Y-3.79
X7.5301Y-3.79
X7.6301Y-3.79
X7.78Y-2.04
X7.78Y-2.14
X7.78Y-2.24
X7.78Y-2.34
X7.78Y-2.44
X7.78Y-2.54
X7.78Y-2.64
X7.78Y-2.74
X7.78Y-2.84
X7.78Y-2.94
X7.78Y-3.04
X7.78Y-3.14
X7.78Y-3.24
X7.78Y-3.34
X7.78Y-3.44
X7.78Y-3.54
X7.78Y-3.64
X7.78Y-3.74
X7.78Y-3.84
X7.78Y-3.94
T6
X2.3942Y-2.7585
X2.4353Y-2.6545
X2.4596Y-3.5062
X2.5007Y-3.4022
X2.5249Y-4.2539
X2.566Y-4.1499
X2.6346Y-2.637
X2.6931Y-2.7323
X2.6999Y-3.3848
X2.7584Y-3.48
X2.7653Y-4.1325
X2.8238Y-4.2277
X3.1421Y-2.693
X3.1832Y-2.589
X3.2075Y-3.4407
X3.2486Y-3.3368
X3.2729Y-4.1885
X3.3139Y-4.0845
X3.3825Y-2.5716
X3.441Y-2.6669
X3.4478Y-3.3193
X3.5064Y-3.4146
X3.5132Y-4.067
X3.5717Y-4.1623
X3.9512Y-2.3636
X3.9906Y-3.1133
X3.9959Y-2.2611
X4.03Y-3.863
X4.0353Y-3.0108
X4.0747Y-3.7605
X4.1957Y-2.2507
X4.235Y-3.0004
X4.2508Y-2.3479
X4.2744Y-3.75
X4.2902Y-3.0976
X4.3296Y-3.8473
X4.82Y-2.28
X4.82Y-3.03
X4.82Y-3.78
X4.87Y-2.18
X4.87Y-2.93
X4.87Y-3.68
X4.885Y-4.945
X4.935Y-4.845
X5.07Y-2.18
X5.07Y-2.93
X5.07Y-3.68
X5.12Y-2.28
X5.12Y-3.03
X5.12Y-3.78
X5.135Y-4.845
X5.185Y-4.945
X5.6018Y-3.9024
X5.6148Y-3.1521
X5.6278Y-2.4018
X5.6535Y-3.8033
X5.6665Y-3.053
X5.6795Y-2.3027
X5.7504Y-4.9623
X5.8056Y-4.865
X5.8535Y-3.8068
X5.8665Y-3.0565
X5.8795Y-2.3062
X5.9017Y-3.9076
X5.9147Y-3.1574
X5.9277Y-2.4071
X6.0053Y-4.8755
X6.05Y-4.978
X6.352Y-3.9474
X6.365Y-3.1971
X6.3779Y-2.4468
X6.4037Y-3.8483
X6.4167Y-3.098
X6.4297Y-2.3477
X6.6037Y-3.8518
X6.6167Y-3.1015
X6.6297Y-2.3512
X6.6519Y-3.9526
X6.6649Y-3.2024
X6.666Y-5.1183
X6.6779Y-2.4521
X6.7511Y-5.0458
X6.9352Y-5.1239
X6.9421Y-5.2355
X7.4896Y-5.5982
X7.5957Y-5.5629
X7.7018Y-5.8104
X7.7371Y-5.7043
T7
X2.89Y-2.37
X3.075Y-4.51
X6.16Y-2.22
X6.65Y-4.645
X7.105Y-5.57
T4
G00X7.6103Y-4.3623
M15
G01X7.5906Y-4.3623
M16
G05
G00X7.6103Y-4.4588
M15
G01X7.5906Y-4.4588
M16
G05
G00X7.6693Y-4.2934
M15
G01X7.6496Y-4.2934
M16
G05
G00X7.6693Y-4.5277
M15
G01X7.6496Y-4.5277
M16
G05
G00X7.8268Y-4.2934
M15
G01X7.8071Y-4.2934
M16
G05
G00X7.8268Y-4.5277
M15
G01X7.8071Y-4.5277
M16
G05
G00X7.9449Y-4.2934
M15
G01X7.9252Y-4.2934
M16
G05
G00X7.9449Y-4.5277
M15
G01X7.9252Y-4.5277
M16
G05
T5
G00X6.9975Y-4.5556
M15
G01X6.9975Y-4.5044
M16
G05
G00X7.4385Y-4.5556
M15
G01X7.4385Y-4.5044
M16
G05
T0
M30
