M48
; DRILL file {KiCad 6.0.0-rc1-unknown-db41769bb9~144~ubuntu20.04.1} date Mi 01 Dez 2021 14:16:22 CET
; FORMAT={-:-/ absolute / inch / decimal}
; #@! TF.CreationDate,2021-12-01T14:16:22+01:00
; #@! TF.GenerationSoftware,Kicad,Pcbnew,6.0.0-rc1-unknown-db41769bb9~144~ubuntu20.04.1
; #@! TF.FileFunction,NonPlated,1,2,NPTH
FMAT,2
INCH
; #@! TA.AperFunction,NonPlated,NPTH,ComponentDrill
T1C0.0472
; #@! TA.AperFunction,NonPlated,NPTH,ComponentDrill
T2C0.0689
; #@! TA.AperFunction,NonPlated,NPTH,ComponentDrill
T3C0.1570
%
G90
G05
T1
X7.7304Y-4.3761
X7.7304Y-4.445
X8.0059Y-4.3761
X8.0059Y-4.445
T2
X2.3531Y-2.8624
X2.4185Y-3.6101
X2.4838Y-4.3579
X2.7516Y-2.8276
X2.817Y-3.5753
X2.8823Y-4.323
X3.1011Y-2.797
X3.1664Y-3.5447
X3.2318Y-4.2924
X3.4995Y-2.7621
X3.5649Y-3.5099
X3.6302Y-4.2576
X3.9065Y-2.4661
X3.9459Y-3.2158
X3.9853Y-3.9655
X4.306Y-2.4452
X4.3454Y-3.1948
X4.3848Y-3.9445
X4.77Y-2.38
X4.77Y-3.13
X4.77Y-3.88
X4.835Y-5.045
X5.17Y-2.38
X5.17Y-3.13
X5.17Y-3.88
X5.235Y-5.045
X5.55Y-4.0015
X5.563Y-3.2512
X5.576Y-2.501
X5.6953Y-5.0595
X5.95Y-4.0085
X5.963Y-3.2582
X5.976Y-2.5079
X6.0947Y-5.0805
X6.3002Y-4.0465
X6.3132Y-3.2962
X6.3262Y-2.546
X6.5809Y-5.1908
X6.7002Y-4.0535
X6.7132Y-3.3032
X6.7262Y-2.5529
X6.9491Y-5.3471
X7.3836Y-5.6336
X7.6664Y-5.9164
T3
X2.5524Y-2.845
X2.6177Y-3.5927
X2.6831Y-4.3404
X3.3003Y-2.7796
X3.3656Y-3.5273
X3.431Y-4.275
X4.1063Y-2.4556
X4.1456Y-3.2053
X4.185Y-3.955
X4.97Y-2.38
X4.97Y-3.13
X4.97Y-3.88
X5.035Y-5.045
X5.75Y-4.005
X5.763Y-3.2547
X5.776Y-2.5044
X5.895Y-5.07
X6.5002Y-4.05
X6.5132Y-3.2997
X6.5262Y-2.5494
X6.765Y-5.2689
X7.525Y-5.775
T0
M30
