M48
; DRILL file {KiCad 6.99.0-unknown-8f937b17a2~148~ubuntu20.04.1} date So 22 Mai 2022 21:32:20 CEST
; FORMAT={-:-/ absolute / inch / decimal}
; #@! TF.CreationDate,2022-05-22T21:32:20+02:00
; #@! TF.GenerationSoftware,Kicad,Pcbnew,6.99.0-unknown-8f937b17a2~148~ubuntu20.04.1
; #@! TF.FileFunction,Plated,1,2,PTH
FMAT,2
INCH
; #@! TA.AperFunction,Plated,PTH,ComponentDrill
T1C0.0276
; #@! TA.AperFunction,Plated,PTH,ComponentDrill
T2C0.0315
; #@! TA.AperFunction,Plated,PTH,ComponentDrill
T3C0.0394
; #@! TA.AperFunction,Plated,PTH,ComponentDrill
T4C0.0591
; #@! TA.AperFunction,Plated,PTH,ComponentDrill
T5C0.0600
; #@! TA.AperFunction,Plated,PTH,ComponentDrill
T6C0.0866
%
G90
G05
T1
X8.23Y-2.61
X8.23Y-2.91
T2
X2.39Y-4.75
X2.39Y-5.05
X2.52Y-4.86
X2.52Y-5.16
X2.65Y-4.98
X2.65Y-5.28
X2.78Y-4.75
X2.78Y-5.05
X2.91Y-4.86
X2.91Y-5.16
X3.04Y-4.98
X3.04Y-5.28
X3.15Y-4.75
X3.15Y-5.05
X3.28Y-4.86
X3.28Y-5.16
X3.41Y-4.98
X3.41Y-5.28
X3.56Y-4.75
X3.56Y-5.05
X3.69Y-4.86
X3.69Y-5.16
X3.819Y-4.98
X3.819Y-5.28
X3.93Y-4.75
X3.93Y-5.05
X4.0579Y-4.86
X4.0579Y-5.16
X4.1879Y-4.98
X4.1879Y-5.28
X4.3279Y-4.75
X4.3279Y-5.05
X4.4575Y-4.86
X4.4575Y-5.16
X4.5874Y-4.98
X4.5874Y-5.28
X5.455Y-4.71
X5.455Y-5.01
X6.3171Y-5.0587
X6.3329Y-4.7591
X7.26Y-4.96
X7.2638Y-5.4691
X7.3762Y-5.1909
X7.56Y-4.96
X8.03Y-5.19
X8.03Y-5.38
X8.33Y-5.19
X8.33Y-5.38
T3
X7.1196Y-4.2544
X7.1196Y-4.8253
X7.218Y-4.8253
X7.29Y-2.04
X7.29Y-2.14
X7.29Y-2.24
X7.29Y-2.34
X7.29Y-2.44
X7.29Y-2.54
X7.29Y-2.64
X7.29Y-2.74
X7.29Y-2.84
X7.29Y-2.94
X7.29Y-3.04
X7.29Y-3.14
X7.29Y-3.24
X7.29Y-3.34
X7.29Y-3.44
X7.29Y-3.54
X7.29Y-3.64
X7.29Y-3.74
X7.29Y-3.84
X7.29Y-3.94
X7.3164Y-4.2544
X7.3164Y-4.8253
X7.89Y-2.04
X7.89Y-2.14
X7.89Y-2.24
X7.89Y-2.34
X7.89Y-2.44
X7.89Y-2.54
X7.89Y-2.64
X7.89Y-2.74
X7.89Y-2.84
X7.89Y-2.94
X7.89Y-3.04
X7.89Y-3.14
X7.89Y-3.24
X7.89Y-3.34
X7.89Y-3.44
X7.89Y-3.54
X7.89Y-3.64
X7.89Y-3.74
X7.89Y-3.84
X7.89Y-3.94
T5
X2.555Y-2.795
X2.555Y-3.545
X2.555Y-4.295
X2.605Y-2.695
X2.605Y-3.445
X2.605Y-4.195
X2.805Y-2.695
X2.805Y-3.445
X2.805Y-4.195
X2.855Y-2.795
X2.855Y-3.545
X2.855Y-4.295
X3.305Y-2.795
X3.305Y-3.545
X3.305Y-4.295
X3.355Y-2.695
X3.355Y-3.445
X3.355Y-4.195
X3.555Y-2.695
X3.555Y-3.445
X3.555Y-4.195
X3.605Y-2.795
X3.605Y-3.545
X3.605Y-4.295
X4.055Y-2.395
X4.055Y-3.145
X4.055Y-3.895
X4.105Y-2.295
X4.105Y-3.045
X4.105Y-3.795
X4.305Y-2.295
X4.305Y-3.045
X4.305Y-3.795
X4.355Y-2.395
X4.355Y-3.145
X4.355Y-3.895
X4.808Y-2.278
X4.808Y-3.028
X4.808Y-3.778
X4.858Y-2.178
X4.858Y-2.928
X4.858Y-3.678
X4.885Y-4.945
X4.935Y-4.845
X5.058Y-2.178
X5.058Y-2.928
X5.058Y-3.678
X5.108Y-2.278
X5.108Y-3.028
X5.108Y-3.778
X5.135Y-4.845
X5.185Y-4.945
X5.56Y-2.4039
X5.56Y-3.1559
X5.56Y-3.905
X5.61Y-2.3039
X5.61Y-3.0559
X5.61Y-3.805
X5.7504Y-4.9623
X5.8056Y-4.865
X5.81Y-2.3039
X5.81Y-3.0559
X5.81Y-3.805
X5.86Y-2.4039
X5.86Y-3.1559
X5.86Y-3.905
X6.0053Y-4.8755
X6.05Y-4.978
X6.312Y-2.4512
X6.312Y-3.1997
X6.3122Y-3.95
X6.362Y-2.3512
X6.362Y-3.0997
X6.3622Y-3.85
X6.562Y-2.3512
X6.562Y-3.0997
X6.5622Y-3.85
X6.612Y-2.4512
X6.612Y-3.1997
X6.6122Y-3.95
X6.765Y-5.1668
X6.8519Y-5.0965
X7.0339Y-5.1795
X7.038Y-5.2912
X7.6446Y-5.6932
X7.7507Y-5.6579
X7.84Y-4.63
X7.8568Y-5.9054
X7.89Y-4.53
X7.8921Y-5.7993
X8.09Y-4.53
X8.14Y-4.63
T6
X3.0807Y-4.6024
X3.0906Y-2.4409
X6.0945Y-2.2165
X7.04Y-3.89
X7.25Y-5.69
X8.23Y-3.89
T3
G00X8.1184Y-2.0761
M15
G01X8.1184Y-2.0958
M16
G05
G00X8.1184Y-2.1942
M15
G01X8.1184Y-2.2139
M16
G05
G00X8.1184Y-2.3517
M15
G01X8.1184Y-2.3714
M16
G05
G00X8.1873Y-2.4107
M15
G01X8.1873Y-2.4304
M16
G05
G00X8.2838Y-2.4107
M15
G01X8.2838Y-2.4304
M16
G05
G00X8.3527Y-2.0761
M15
G01X8.3527Y-2.0958
M16
G05
G00X8.3527Y-2.1942
M15
G01X8.3527Y-2.2139
M16
G05
G00X8.3527Y-2.3517
M15
G01X8.3527Y-2.3714
M16
G05
T4
G00X6.9975Y-4.5556
M15
G01X6.9975Y-4.5044
M16
G05
G00X7.4385Y-4.5556
M15
G01X7.4385Y-4.5044
M16
G05
T0
M30
