%TF.GenerationSoftware,KiCad,Pcbnew,6.99.0-unknown-8f937b17a2~148~ubuntu20.04.1*%
%TF.CreationDate,2022-05-22T21:32:22+02:00*%
%TF.ProjectId,khada,6b686164-612e-46b6-9963-61645f706362,rev?*%
%TF.SameCoordinates,Original*%
%TF.FileFunction,Soldermask,Bot*%
%TF.FilePolarity,Negative*%
%FSLAX46Y46*%
G04 Gerber Fmt 4.6, Leading zero omitted, Abs format (unit mm)*
G04 Created by KiCad (PCBNEW 6.99.0-unknown-8f937b17a2~148~ubuntu20.04.1) date 2022-05-22 21:32:22*
%MOMM*%
%LPD*%
G01*
G04 APERTURE LIST*
G04 Aperture macros list*
%AMRoundRect*
0 Rectangle with rounded corners*
0 $1 Rounding radius*
0 $2 $3 $4 $5 $6 $7 $8 $9 X,Y pos of 4 corners*
0 Add a 4 corners polygon primitive as box body*
4,1,4,$2,$3,$4,$5,$6,$7,$8,$9,$2,$3,0*
0 Add four circle primitives for the rounded corners*
1,1,$1+$1,$2,$3*
1,1,$1+$1,$4,$5*
1,1,$1+$1,$6,$7*
1,1,$1+$1,$8,$9*
0 Add four rect primitives between the rounded corners*
20,1,$1+$1,$2,$3,$4,$5,0*
20,1,$1+$1,$4,$5,$6,$7,0*
20,1,$1+$1,$6,$7,$8,$9,0*
20,1,$1+$1,$8,$9,$2,$3,0*%
%AMHorizOval*
0 Thick line with rounded ends*
0 $1 width*
0 $2 $3 position (X,Y) of the first rounded end (center of the circle)*
0 $4 $5 position (X,Y) of the second rounded end (center of the circle)*
0 Add line between two ends*
20,1,$1,$2,$3,$4,$5,0*
0 Add two circle primitives to create the rounded ends*
1,1,$1,$2,$3*
1,1,$1,$4,$5*%
G04 Aperture macros list end*
%ADD10C,1.200000*%
%ADD11O,1.700000X2.500000*%
%ADD12R,2.000000X2.000000*%
%ADD13C,2.000000*%
%ADD14R,2.000000X3.200000*%
%ADD15C,1.400000*%
%ADD16O,1.400000X1.400000*%
%ADD17R,1.700000X1.700000*%
%ADD18C,1.700000*%
%ADD19C,4.000000*%
%ADD20C,1.750000*%
%ADD21C,3.987800*%
%ADD22C,2.300000*%
%ADD23RoundRect,0.160000X0.640000X-0.640000X0.640000X0.640000X-0.640000X0.640000X-0.640000X-0.640000X0*%
%ADD24O,1.600000X1.600000*%
%ADD25RoundRect,0.160000X0.640000X0.640000X-0.640000X0.640000X-0.640000X-0.640000X0.640000X-0.640000X0*%
%ADD26RoundRect,0.160000X0.353649X-0.833146X0.833146X0.353649X-0.353649X0.833146X-0.833146X-0.353649X0*%
%ADD27HorizOval,1.600000X0.000000X0.000000X0.000000X0.000000X0*%
%ADD28RoundRect,0.160000X0.605628X-0.672618X0.672618X0.605628X-0.605628X0.672618X-0.672618X-0.605628X0*%
%ADD29HorizOval,1.600000X0.000000X0.000000X0.000000X0.000000X0*%
%ADD30RoundRect,0.160000X-0.640000X-0.640000X0.640000X-0.640000X0.640000X0.640000X-0.640000X0.640000X0*%
G04 APERTURE END LIST*
D10*
%TO.C,J1*%
X208308000Y-58182400D03*
X208308000Y-51182400D03*
D11*
X206207999Y-59982399D03*
X210407999Y-61482399D03*
X206207999Y-52982399D03*
X206207999Y-55982399D03*
D10*
X210058000Y-51182400D03*
X210058000Y-58182400D03*
D11*
X212157999Y-52982399D03*
X212157999Y-55982399D03*
X212157999Y-59982399D03*
X207957999Y-61482399D03*
%TD*%
D12*
%TO.C,SW24*%
X180837199Y-122561999D03*
D13*
X185837200Y-122562000D03*
X183337200Y-122562000D03*
D14*
X177737199Y-115061999D03*
X188937199Y-115061999D03*
D13*
X185837200Y-108062000D03*
X180837200Y-108062000D03*
%TD*%
D15*
%TO.C,R1*%
X209042000Y-66294000D03*
D16*
X209041999Y-73913999D03*
%TD*%
D17*
%TO.C,U1*%
X185165999Y-51815999D03*
D18*
X185166000Y-54356000D03*
X185166000Y-56896000D03*
X185166000Y-59436000D03*
X185166000Y-61976000D03*
X185166000Y-64516000D03*
X185166000Y-67056000D03*
X185166000Y-69596000D03*
X185166000Y-72136000D03*
X185166000Y-74676000D03*
X185166000Y-77216000D03*
X185166000Y-79756000D03*
X185166000Y-82296000D03*
X185166000Y-84836000D03*
X185166000Y-87376000D03*
X185166000Y-89916000D03*
X185166000Y-92456000D03*
X185166000Y-94996000D03*
X185166000Y-97536000D03*
X185166000Y-100076000D03*
X200406000Y-100076000D03*
X200406000Y-97536000D03*
X200406000Y-94996000D03*
X200406000Y-92456000D03*
X200406000Y-89916000D03*
X200406000Y-87376000D03*
X200406000Y-84836000D03*
X200406000Y-82296000D03*
X200406000Y-79756000D03*
X200406000Y-77216000D03*
X200406000Y-74676000D03*
X200406000Y-72136000D03*
X200406000Y-69596000D03*
X200406000Y-67056000D03*
X200406000Y-64516000D03*
X200406000Y-61976000D03*
X200406000Y-59436000D03*
X200406000Y-56896000D03*
X200406000Y-54356000D03*
X200406000Y-51816000D03*
%TD*%
D19*
%TO.C,H6*%
X209042000Y-98806000D03*
%TD*%
%TO.C,H5*%
X178816000Y-98806000D03*
%TD*%
D20*
%TO.C,SW7*%
X82677000Y-111633000D03*
D21*
X87757000Y-111633000D03*
D20*
X92837000Y-111633000D03*
D22*
X83947000Y-109093000D03*
X85217000Y-106553000D03*
X90297000Y-106553000D03*
X91567000Y-109093000D03*
%TD*%
D20*
%TO.C,SW9*%
X101727000Y-63373000D03*
D21*
X106807000Y-63373000D03*
D20*
X111887000Y-63373000D03*
D22*
X102997000Y-60833000D03*
X104267000Y-58293000D03*
X109347000Y-58293000D03*
X110617000Y-60833000D03*
%TD*%
D23*
%TO.C,D13*%
X90424000Y-128270000D03*
D24*
X90423999Y-120649999D03*
%TD*%
D23*
%TO.C,D5*%
X70612000Y-128270000D03*
D24*
X70611999Y-120649999D03*
%TD*%
D23*
%TO.C,D15*%
X97002600Y-134112000D03*
D24*
X97002599Y-126491999D03*
%TD*%
D23*
%TO.C,D7*%
X77216000Y-134112000D03*
D24*
X77215999Y-126491999D03*
%TD*%
D19*
%TO.C,H3*%
X78250000Y-116900000D03*
%TD*%
D20*
%TO.C,SW1*%
X63627000Y-73533000D03*
D21*
X68707000Y-73533000D03*
D20*
X73787000Y-73533000D03*
D22*
X64897000Y-70993000D03*
X66167000Y-68453000D03*
X71247000Y-68453000D03*
X72517000Y-70993000D03*
%TD*%
D19*
%TO.C,H4*%
X184150000Y-144526000D03*
%TD*%
%TO.C,H2*%
X154800000Y-56300000D03*
%TD*%
D24*
%TO.C,D24*%
X184403999Y-125983999D03*
D25*
X192024000Y-125984000D03*
%TD*%
D23*
%TO.C,D9*%
X80010000Y-128270000D03*
D24*
X80009999Y-120649999D03*
%TD*%
D26*
%TO.C,D12*%
X184500749Y-138914570D03*
D27*
X187355250Y-131849429D03*
%TD*%
D20*
%TO.C,SW15*%
X120854000Y-98500000D03*
D21*
X125934000Y-98500000D03*
D20*
X131014000Y-98500000D03*
D22*
X122124000Y-95960000D03*
X123394000Y-93420000D03*
X128474000Y-93420000D03*
X129744000Y-95960000D03*
%TD*%
D23*
%TO.C,D21*%
X109927400Y-128270000D03*
D24*
X109927399Y-120649999D03*
%TD*%
D23*
%TO.C,D14*%
X93726000Y-131064000D03*
D24*
X93725999Y-123443999D03*
%TD*%
D20*
%TO.C,SW12*%
X169621397Y-133021358D03*
D21*
X174244000Y-135128000D03*
D20*
X178866603Y-137234642D03*
D22*
X171830368Y-131236717D03*
X174039340Y-129452076D03*
X178661943Y-131558718D03*
X178764273Y-134396680D03*
%TD*%
D23*
%TO.C,D23*%
X116520000Y-134112000D03*
D24*
X116519999Y-126491999D03*
%TD*%
D20*
%TO.C,SW10*%
X101727000Y-82423000D03*
D21*
X106807000Y-82423000D03*
D20*
X111887000Y-82423000D03*
D22*
X102997000Y-79883000D03*
X104267000Y-77343000D03*
X109347000Y-77343000D03*
X110617000Y-79883000D03*
%TD*%
D23*
%TO.C,D4*%
X138557000Y-127254000D03*
D24*
X138556999Y-119633999D03*
%TD*%
D20*
%TO.C,SW19*%
X139954000Y-101727000D03*
D21*
X145034000Y-101727000D03*
D20*
X150114000Y-101727000D03*
D22*
X141224000Y-99187000D03*
X142494000Y-96647000D03*
X147574000Y-96647000D03*
X148844000Y-99187000D03*
%TD*%
D20*
%TO.C,SW6*%
X82677000Y-92583000D03*
D21*
X87757000Y-92583000D03*
D20*
X92837000Y-92583000D03*
D22*
X83947000Y-90043000D03*
X85217000Y-87503000D03*
X90297000Y-87503000D03*
X91567000Y-90043000D03*
%TD*%
D20*
%TO.C,SW8*%
X144659962Y-128512133D03*
D21*
X149733000Y-128778000D03*
D20*
X154806038Y-129043867D03*
D22*
X146061155Y-126042081D03*
X147462348Y-123572029D03*
X152535386Y-123837895D03*
X153670712Y-126440881D03*
%TD*%
D20*
%TO.C,SW23*%
X159059000Y-102870000D03*
D21*
X164139000Y-102870000D03*
D20*
X169219000Y-102870000D03*
D22*
X160329000Y-100330000D03*
X161599000Y-97790000D03*
X166679000Y-97790000D03*
X167949000Y-100330000D03*
%TD*%
D23*
%TO.C,D2*%
X64008000Y-131064000D03*
D24*
X64007999Y-123443999D03*
%TD*%
D20*
%TO.C,SW13*%
X120854000Y-60400000D03*
D21*
X125934000Y-60400000D03*
D20*
X131014000Y-60400000D03*
D22*
X122124000Y-57860000D03*
X123394000Y-55320000D03*
X128474000Y-55320000D03*
X129744000Y-57860000D03*
%TD*%
D20*
%TO.C,SW14*%
X120854000Y-79450000D03*
D21*
X125934000Y-79450000D03*
D20*
X131014000Y-79450000D03*
D22*
X122124000Y-76910000D03*
X123394000Y-74370000D03*
X128474000Y-74370000D03*
X129744000Y-76910000D03*
%TD*%
D20*
%TO.C,SW21*%
X159054000Y-64800000D03*
D21*
X164134000Y-64800000D03*
D20*
X169214000Y-64800000D03*
D22*
X160324000Y-62260000D03*
X161594000Y-59720000D03*
X166674000Y-59720000D03*
X167944000Y-62260000D03*
%TD*%
D23*
%TO.C,D10*%
X83312000Y-131064000D03*
D24*
X83311999Y-123443999D03*
%TD*%
D20*
%TO.C,SW11*%
X101727000Y-101473000D03*
D21*
X106807000Y-101473000D03*
D20*
X111887000Y-101473000D03*
D22*
X102997000Y-98933000D03*
X104267000Y-96393000D03*
X109347000Y-96393000D03*
X110617000Y-98933000D03*
%TD*%
D28*
%TO.C,D8*%
X160455600Y-128491702D03*
D29*
X160854399Y-120882143D03*
%TD*%
D30*
%TO.C,D20*%
X203962000Y-131826000D03*
D24*
X211581999Y-131825999D03*
%TD*%
D20*
%TO.C,SW20*%
X197866000Y-120142000D03*
D21*
X202946000Y-120142000D03*
D20*
X208026000Y-120142000D03*
D22*
X199136000Y-117602000D03*
X200406000Y-115062000D03*
X205486000Y-115062000D03*
X206756000Y-117602000D03*
%TD*%
D23*
%TO.C,D6*%
X73914000Y-131064000D03*
D24*
X73913999Y-123443999D03*
%TD*%
D23*
%TO.C,D1*%
X60706000Y-128270000D03*
D24*
X60705999Y-120649999D03*
%TD*%
D20*
%TO.C,SW2*%
X63627000Y-92583000D03*
D21*
X68707000Y-92583000D03*
D20*
X73787000Y-92583000D03*
D22*
X64897000Y-90043000D03*
X66167000Y-87503000D03*
X71247000Y-87503000D03*
X72517000Y-90043000D03*
%TD*%
D23*
%TO.C,D18*%
X103069400Y-131064000D03*
D24*
X103069399Y-123443999D03*
%TD*%
D23*
%TO.C,D3*%
X67310000Y-134112000D03*
D24*
X67309999Y-126491999D03*
%TD*%
D23*
%TO.C,D17*%
X99822000Y-128270000D03*
D24*
X99821999Y-120649999D03*
%TD*%
D20*
%TO.C,SW4*%
X122809000Y-128143000D03*
D21*
X127889000Y-128143000D03*
D20*
X132969000Y-128143000D03*
D22*
X124079000Y-125603000D03*
X125349000Y-123063000D03*
X130429000Y-123063000D03*
X131699000Y-125603000D03*
%TD*%
D20*
%TO.C,SW16*%
X191479898Y-145505898D03*
D21*
X195072000Y-149098000D03*
D20*
X198664102Y-152690102D03*
D22*
X194173974Y-144607872D03*
X196868051Y-143709846D03*
X200460154Y-147301949D03*
X199562128Y-149996026D03*
%TD*%
D20*
%TO.C,SW18*%
X139954000Y-82700000D03*
D21*
X145034000Y-82700000D03*
D20*
X150114000Y-82700000D03*
D22*
X141224000Y-80160000D03*
X142494000Y-77620000D03*
X147574000Y-77620000D03*
X148844000Y-80160000D03*
%TD*%
D23*
%TO.C,D11*%
X86614000Y-134112000D03*
D24*
X86613999Y-126491999D03*
%TD*%
D19*
%TO.C,H1*%
X78500000Y-62000000D03*
%TD*%
D20*
%TO.C,SW22*%
X159054000Y-83813000D03*
D21*
X164134000Y-83813000D03*
D20*
X169214000Y-83813000D03*
D22*
X160324000Y-81273000D03*
X161594000Y-78733000D03*
X166674000Y-78733000D03*
X167944000Y-81273000D03*
%TD*%
D20*
%TO.C,SW17*%
X139954000Y-63600000D03*
D21*
X145034000Y-63600000D03*
D20*
X150114000Y-63600000D03*
D22*
X141224000Y-61060000D03*
X142494000Y-58520000D03*
X147574000Y-58520000D03*
X148844000Y-61060000D03*
%TD*%
D30*
%TO.C,D16*%
X203962000Y-136652000D03*
D24*
X211581999Y-136651999D03*
%TD*%
D20*
%TO.C,SW5*%
X82677000Y-73533000D03*
D21*
X87757000Y-73533000D03*
D20*
X92837000Y-73533000D03*
D22*
X83947000Y-70993000D03*
X85217000Y-68453000D03*
X90297000Y-68453000D03*
X91567000Y-70993000D03*
%TD*%
D23*
%TO.C,D22*%
X113220000Y-131064000D03*
D24*
X113219999Y-123443999D03*
%TD*%
D20*
%TO.C,SW3*%
X63627000Y-111633000D03*
D21*
X68707000Y-111633000D03*
D20*
X73787000Y-111633000D03*
D22*
X64897000Y-109093000D03*
X66167000Y-106553000D03*
X71247000Y-106553000D03*
X72517000Y-109093000D03*
%TD*%
D23*
%TO.C,D19*%
X106371400Y-134112000D03*
D24*
X106371399Y-126491999D03*
%TD*%
M02*
